<svg width="368" height="94" viewBox="0 0 368 94" fill="none" xmlns="http://www.w3.org/2000/svg">
<path fill-rule="evenodd" clip-rule="evenodd" d="M185.238 38.6104L179.876 37.7134C179.573 38.7291 179.15 39.4678 178.569 39.9295C178.001 40.3912 177.288 40.6155 176.443 40.6155C175.202 40.6155 174.172 40.167 173.34 39.2832C172.508 38.3994 172.072 37.1594 172.033 35.5633H185.515C185.594 31.4344 184.749 28.3741 183.006 26.3822C181.263 24.3904 178.873 23.3878 175.849 23.3878C173.155 23.3878 170.924 24.3376 169.167 26.2503C167.411 28.163 166.526 30.8013 166.526 34.165C166.526 36.9879 167.187 39.3227 168.534 41.1695C170.237 43.4779 172.851 44.6388 176.39 44.6388C178.622 44.6388 180.484 44.1243 181.976 43.0954C183.455 42.0665 184.551 40.5759 185.238 38.6104ZM178.978 28.7303C179.744 29.5349 180.141 30.7221 180.18 32.2787H172.138C172.125 30.8145 172.508 29.6536 173.274 28.7962C174.04 27.9388 175.004 27.5167 176.179 27.5167C177.275 27.5167 178.213 27.9256 178.978 28.7303ZM175.941 15.6447L173.3 21.3696H176.707L181.976 15.6447H175.941ZM129.038 35.062L134.558 34.5212C134.888 36.3679 135.561 37.7266 136.578 38.5972C137.595 39.4678 138.968 39.9031 140.685 39.9031C142.507 39.9031 143.88 39.5206 144.818 38.7423C145.742 37.9772 146.204 37.067 146.204 36.0381C146.204 35.3786 146.006 34.8114 145.623 34.3497C145.24 33.888 144.554 33.4791 143.59 33.1361C142.929 32.9118 141.411 32.5029 139.047 31.9093C136.01 31.1574 133.871 30.234 132.656 29.1392C130.926 27.5958 130.068 25.7095 130.068 23.4934C130.068 22.0687 130.477 20.7232 131.283 19.4833C132.088 18.2433 133.264 17.2935 134.782 16.6472C136.314 16.0008 138.149 15.671 140.302 15.671C143.827 15.671 146.482 16.4493 148.264 17.9927C150.047 19.536 150.984 21.5939 151.064 24.1793L145.399 24.4299C145.161 22.9921 144.633 21.95 143.841 21.3168C143.048 20.6837 141.847 20.3671 140.249 20.3671C138.651 20.3671 137.317 20.71 136.38 21.3828C135.786 21.8181 135.482 22.3985 135.482 23.124C135.482 23.7836 135.759 24.3508 136.327 24.8257C137.04 25.4193 138.783 26.0525 141.543 26.6988C144.303 27.3452 146.336 28.0179 147.657 28.7171C148.977 29.4162 150.007 30.366 150.76 31.5663C151.513 32.7667 151.882 34.2573 151.882 36.0381C151.882 37.6475 151.433 39.1512 150.535 40.5495C149.638 41.9478 148.383 42.9899 146.746 43.6758C145.108 44.3617 143.075 44.7047 140.632 44.7047C137.08 44.7047 134.36 43.8869 132.458 42.2512C130.557 40.6155 129.421 38.2279 129.051 35.0884L129.038 35.062ZM165.14 23.8627V28.1498H161.469V36.3415C161.469 38.0036 161.509 38.9666 161.575 39.2436C161.641 39.5206 161.799 39.7448 162.05 39.9163C162.301 40.101 162.605 40.1801 162.961 40.1801C163.463 40.1801 164.176 40.0087 165.127 39.6657L165.589 43.8341C164.334 44.3749 162.922 44.6388 161.337 44.6388C160.36 44.6388 159.488 44.4805 158.709 44.1507C157.93 43.8209 157.362 43.3988 156.993 42.8843C156.623 42.3699 156.372 41.6707 156.24 40.7869C156.121 40.167 156.068 38.9006 156.068 37.0011V28.1366H153.599V23.8495H156.068V19.813L161.469 16.6736V23.8495H165.14V23.8627ZM198.456 23.8627V28.1498H194.785V36.3415C194.785 38.0036 194.824 38.9666 194.89 39.2436C194.956 39.5206 195.115 39.7448 195.366 39.9163C195.617 40.101 195.92 40.1801 196.277 40.1801C196.779 40.1801 197.492 40.0087 198.442 39.6657L198.904 43.8341C197.65 44.3749 196.237 44.6388 194.653 44.6388C193.675 44.6388 192.804 44.4805 192.025 44.1507C191.246 43.8209 190.678 43.3988 190.308 42.8843C189.938 42.3699 189.688 41.6707 189.556 40.7869C189.437 40.167 189.384 38.9006 189.384 37.0011V28.1366H186.915V23.8495H189.384V19.813L194.785 16.6736V23.8495H198.456V23.8627ZM210.736 28.1498V23.8627V23.8495H207.065V16.6736L201.664 19.813V23.8495H199.195V28.1366H201.664V37.0011C201.664 38.9006 201.717 40.167 201.836 40.7869C201.968 41.6707 202.219 42.3699 202.589 42.8843C202.958 43.3988 203.526 43.8209 204.305 44.1507C205.084 44.4805 205.956 44.6388 206.933 44.6388C208.518 44.6388 209.93 44.3749 211.185 43.8341L210.723 39.6657C209.772 40.0087 209.059 40.1801 208.557 40.1801C208.201 40.1801 207.897 40.101 207.646 39.9163C207.395 39.7448 207.237 39.5206 207.171 39.2436C207.105 38.9666 207.065 38.0036 207.065 36.3415V28.1498H210.736ZM217.708 30.0626L212.822 29.1787C213.377 27.2133 214.314 25.7622 215.661 24.8125C217.008 23.8627 218.989 23.401 221.643 23.401C224.046 23.401 225.829 23.6912 227.004 24.2585C228.179 24.8257 229.011 25.5512 229.487 26.4218C229.962 27.2924 230.2 28.9017 230.2 31.2366L230.147 37.5155C230.147 39.2963 230.239 40.6155 230.411 41.4729C230.583 42.3171 230.9 43.2273 231.375 44.2034H226.053C225.908 43.8473 225.737 43.3196 225.539 42.6205C225.446 42.3039 225.38 42.0929 225.34 41.9873C224.416 42.8843 223.439 43.5439 222.396 43.9924C221.353 44.4409 220.23 44.6651 219.042 44.6651C216.942 44.6651 215.292 44.0979 214.09 42.9635C212.888 41.829 212.281 40.3912 212.281 38.6632C212.281 37.5155 212.558 36.4866 213.1 35.5896C213.641 34.6926 214.42 34.0067 215.41 33.5186C216.401 33.0437 217.827 32.6216 219.689 32.2655C222.211 31.7906 223.954 31.3553 224.918 30.9464V30.4055C224.918 29.3766 224.667 28.6379 224.152 28.1894C223.637 27.7541 222.673 27.5299 221.26 27.5299C220.296 27.5299 219.557 27.7145 219.015 28.0971C218.474 28.4796 218.038 29.1392 217.708 30.0757V30.0626ZM221.63 35.2467C223.112 34.9321 224.204 34.6566 224.891 34.4331V35.4841C224.891 36.7768 224.825 37.6475 224.68 38.1091C224.482 38.8083 224.046 39.4019 223.399 39.8899C222.528 40.5363 221.59 40.8529 220.626 40.8529C219.768 40.8529 219.055 40.5891 218.487 40.035C217.919 39.481 217.642 38.8478 217.642 38.0828C217.642 37.3177 217.999 36.6845 218.698 36.1832C219.161 35.8798 220.138 35.5633 221.63 35.2467ZM234.478 44.1903H239.866V44.1771V37.8981C239.866 34.442 240.011 32.1731 240.315 31.0915C240.618 30.0098 241.028 29.2579 241.556 28.849C242.084 28.4401 242.691 28.229 243.471 28.229C244.25 28.229 245.082 28.5324 245.993 29.1128L246.838 26.7342V28.0971H249.822V44.1903H255.21V28.0971H259.237V23.8627H255.21V22.4249C255.21 21.396 255.368 20.6968 255.711 20.3275C256.055 19.9713 256.596 19.7867 257.388 19.7867C258.181 19.7867 258.999 19.8922 259.858 20.0901L260.584 16.3438C259.118 15.8821 257.573 15.6578 256.081 15.6578C254.589 15.6578 253.348 15.9217 252.371 16.4493C251.393 16.977 250.72 17.6629 250.363 18.5071C250.007 19.3514 249.822 20.6177 249.822 22.3326V23.8627H246.838V24.0054C245.958 23.6132 245.053 23.4142 244.118 23.4142C243.246 23.4142 242.48 23.6253 241.794 24.0606C241.107 24.4959 240.341 25.4061 239.483 26.7648V23.8759H234.478V44.1903ZM278.622 38.6104L273.261 37.7134C272.957 38.7291 272.534 39.4678 271.953 39.9295C271.385 40.3912 270.672 40.6155 269.827 40.6155C268.586 40.6155 267.556 40.167 266.724 39.2832C265.892 38.3994 265.456 37.1594 265.417 35.5633H278.899C278.978 31.4344 278.133 28.3741 276.39 26.3822C274.647 24.3904 272.257 23.3878 269.233 23.3878C266.539 23.3878 264.308 24.3376 262.551 26.2503C260.795 28.163 259.91 30.8013 259.91 34.165C259.91 36.9879 260.571 39.3227 261.918 41.1695C263.621 43.4779 266.236 44.6388 269.774 44.6388C272.006 44.6388 273.868 44.1243 275.36 43.0954C276.839 42.0665 277.935 40.5759 278.622 38.6104ZM272.363 28.7303C273.128 29.5349 273.525 30.7221 273.564 32.2787H265.523C265.509 30.8145 265.892 29.6536 266.658 28.7962C267.424 27.9388 268.388 27.5167 269.563 27.5167C270.659 27.5167 271.597 27.9256 272.363 28.7303ZM269.326 15.6447L266.685 21.3696H270.091L275.36 15.6447H269.326ZM282.504 44.1903V16.1327H287.891V44.1903H282.504ZM291.76 29.1787L296.646 30.0626V30.0757C296.976 29.1392 297.412 28.4796 297.953 28.0971C298.495 27.7145 299.234 27.5299 300.198 27.5299C301.611 27.5299 302.575 27.7541 303.09 28.1894C303.605 28.6379 303.856 29.3766 303.856 30.4055V30.9464C302.892 31.3553 301.149 31.7906 298.627 32.2655C296.765 32.6216 295.339 33.0437 294.349 33.5186C293.358 34.0067 292.579 34.6926 292.038 35.5896C291.496 36.4866 291.219 37.5155 291.219 38.6632C291.219 40.3912 291.826 41.829 293.028 42.9635C294.23 44.0979 295.88 44.6651 297.98 44.6651C299.168 44.6651 300.291 44.4409 301.334 43.9924C302.377 43.5439 303.354 42.8843 304.278 41.9873C304.318 42.0929 304.384 42.3039 304.477 42.6205C304.675 43.3196 304.846 43.8473 304.992 44.2034H310.313C309.838 43.2273 309.521 42.3171 309.349 41.4729C309.177 40.6155 309.085 39.2963 309.085 37.5155L309.138 31.2366C309.138 28.9017 308.9 27.2924 308.425 26.4218C307.949 25.5512 307.118 24.8257 305.942 24.2585C304.767 23.6912 302.984 23.401 300.581 23.401C297.927 23.401 295.946 23.8627 294.599 24.8125C293.253 25.7622 292.315 27.2133 291.76 29.1787ZM303.83 34.4331C303.142 34.6566 302.051 34.9321 300.568 35.2467C299.076 35.5633 298.099 35.8798 297.636 36.1832C296.937 36.6845 296.58 37.3177 296.58 38.0828C296.58 38.8478 296.857 39.481 297.425 40.035C297.993 40.5891 298.706 40.8529 299.564 40.8529C300.528 40.8529 301.466 40.5363 302.337 39.8899C302.984 39.4019 303.42 38.8083 303.618 38.1091C303.764 37.6475 303.83 36.7768 303.83 35.4841V34.4331ZM313.152 45.5226L319.306 46.2745C319.411 46.9868 319.649 47.4749 320.019 47.7519C320.534 48.1344 321.339 48.3323 322.435 48.3323C323.835 48.3323 324.891 48.1212 325.591 47.6991C326.066 47.4221 326.423 46.9604 326.661 46.3404C326.832 45.8919 326.911 45.0741 326.911 43.8737V40.9057C325.3 43.0954 323.267 44.2034 320.824 44.2034C318.091 44.2034 315.925 43.0426 314.327 40.7342C313.073 38.9138 312.452 36.6449 312.452 33.9276C312.452 30.5242 313.271 27.9256 314.908 26.1184C316.546 24.3244 318.592 23.4142 321.022 23.4142C323.452 23.4142 325.617 24.5223 327.242 26.7252V23.8759H332.273V42.1061C332.273 44.5068 332.075 46.3008 331.678 47.488C331.282 48.6752 330.728 49.5986 330.015 50.2846C329.302 50.9573 328.351 51.485 327.149 51.8675C325.961 52.25 324.442 52.4479 322.62 52.4479C319.173 52.4479 316.731 51.8543 315.278 50.6803C313.826 49.5063 313.112 48.0025 313.112 46.1953C313.112 46.0106 313.112 45.7996 313.126 45.5489L313.152 45.5226ZM317.959 33.5978C317.959 35.7479 318.381 37.3309 319.213 38.3334C320.045 39.3359 321.075 39.8372 322.303 39.8372C323.623 39.8372 324.733 39.3227 325.631 38.2938C326.542 37.2649 326.991 35.7479 326.991 33.7297C326.991 31.7115 326.555 30.0626 325.683 29.0468C324.812 28.0311 323.716 27.5167 322.395 27.5167C321.075 27.5167 320.045 28.0179 319.2 29.0205C318.368 30.023 317.945 31.5532 317.945 33.5978H317.959ZM130.306 56.6823V84.7398H135.971V56.6823H130.306ZM159.013 84.7398H153.625V74.3716C153.625 72.1818 153.507 70.7572 153.282 70.1108C153.058 69.4645 152.675 68.9632 152.16 68.607C151.645 68.2509 151.024 68.0662 150.298 68.0662C149.36 68.0662 148.528 68.3168 147.789 68.8313C147.049 69.3457 146.534 70.0185 146.27 70.8627C145.993 71.707 145.861 73.2635 145.861 75.5324V84.7398H140.473V64.4254H145.478V67.4066C147.247 65.1114 149.492 63.9638 152.186 63.9638C153.374 63.9638 154.457 64.1748 155.448 64.6101C156.425 65.0322 157.177 65.5863 157.679 66.2458C158.181 66.9054 158.538 67.6573 158.736 68.5015C158.934 69.3457 159.026 70.5461 159.026 72.1159V84.7398H159.013ZM176.76 84.7398H182.148H182.161V72.1159C182.161 70.5461 182.068 69.3457 181.87 68.5015C181.672 67.6573 181.316 66.9054 180.814 66.2458C180.312 65.5863 179.56 65.0322 178.582 64.6101C177.592 64.1748 176.509 63.9638 175.321 63.9638C172.627 63.9638 170.382 65.1114 168.613 67.4066V64.4254H163.608V84.7398H168.996V75.5324C168.996 73.2635 169.128 71.707 169.405 70.8627C169.669 70.0185 170.184 69.3457 170.924 68.8313C171.663 68.3168 172.495 68.0662 173.432 68.0662C174.159 68.0662 174.779 68.2509 175.294 68.607C175.809 68.9632 176.192 69.4645 176.417 70.1108C176.641 70.7572 176.76 72.1818 176.76 74.3716V84.7398ZM186.558 84.7398V56.6823H191.946V66.7867C193.609 64.9003 195.577 63.9506 197.848 63.9506C200.331 63.9506 202.377 64.8476 204.002 66.6416C205.626 68.4355 206.431 71.0078 206.431 74.3584C206.431 77.7089 205.599 80.5054 203.949 82.3786C202.298 84.2517 200.291 85.1883 197.927 85.1883C196.765 85.1883 195.617 84.8981 194.494 84.3177C193.358 83.7373 192.395 82.8798 191.576 81.7454V84.7266H186.571L186.558 84.7398ZM191.906 74.1341C191.906 76.2447 192.236 77.8013 192.896 78.8038C193.834 80.2284 195.062 80.9407 196.607 80.9407C197.795 80.9407 198.812 80.4395 199.644 79.4238C200.476 78.408 200.898 76.8119 200.898 74.6354C200.898 72.3137 200.476 70.6385 199.631 69.6096C198.786 68.5807 197.703 68.0662 196.396 68.0662C195.088 68.0662 194.032 68.5675 193.174 69.57C192.315 70.5725 191.893 72.0895 191.893 74.1341H191.906ZM209.693 84.7398H215.08V84.7266V78.4476C215.08 74.9915 215.226 72.7227 215.529 71.641C215.833 70.5593 216.242 69.8074 216.771 69.3985C217.299 68.9896 217.906 68.7785 218.685 68.7785C219.464 68.7785 220.296 69.0819 221.207 69.6623L222.871 64.9795C221.736 64.3067 220.56 63.9638 219.332 63.9638C218.461 63.9638 217.695 64.1748 217.008 64.6101C216.322 65.0454 215.556 65.9556 214.697 67.3143V64.4254H209.693V84.7398ZM223.122 74.2924C223.122 72.5116 223.558 70.7836 224.443 69.1083C225.327 67.433 226.568 66.1667 228.193 65.2829C229.804 64.3991 231.613 63.9638 233.607 63.9638C236.683 63.9638 239.205 64.9663 241.173 66.9581C243.14 68.95 244.118 71.4827 244.118 74.5299C244.118 77.577 243.127 80.1493 241.133 82.1675C239.153 84.1858 236.644 85.2015 233.633 85.2015C231.771 85.2015 229.989 84.7794 228.298 83.9351C226.608 83.0909 225.314 81.8641 224.443 80.2284C223.558 78.6059 223.122 76.6272 223.122 74.2924ZM228.642 74.5826C228.642 76.6009 229.117 78.1442 230.081 79.2127C231.045 80.2812 232.22 80.822 233.62 80.822C235.02 80.822 236.208 80.2812 237.159 79.2127C238.109 78.1442 238.585 76.5877 238.585 74.543C238.585 72.4984 238.109 71.021 237.159 69.9525C236.208 68.884 235.033 68.3432 233.62 68.3432C232.207 68.3432 231.032 68.884 230.081 69.9525C229.117 71.021 228.642 72.5644 228.642 74.5826ZM256.834 68.7126V64.4254V64.4123H253.163V57.2363L247.762 60.3758V64.4123H245.293V68.6994H247.762V77.5638C247.762 79.4633 247.815 80.7297 247.934 81.3497C248.066 82.2335 248.317 82.9326 248.686 83.4471C249.056 83.9615 249.624 84.3836 250.403 84.7134C251.182 85.0432 252.054 85.2015 253.031 85.2015C254.615 85.2015 256.028 84.9377 257.283 84.3968L256.821 80.2284C255.87 80.5714 255.157 80.7429 254.655 80.7429C254.298 80.7429 253.995 80.6637 253.744 80.479C253.493 80.3076 253.335 80.0833 253.269 79.8063C253.202 79.5293 253.163 78.5663 253.163 76.9043V68.7126H256.834ZM257.851 78.9489L257.867 78.9465C258.369 80.8673 259.425 82.3939 261.033 83.513C262.644 84.6343 264.836 85.2015 267.609 85.2015C270.659 85.2015 272.97 84.5419 274.528 83.1964C276.086 81.8641 276.865 80.2548 276.865 78.3949C276.865 76.6932 276.298 75.3609 275.175 74.3979C274.04 73.4614 272.032 72.6567 269.167 72.0103C266.302 71.3508 264.625 70.8495 264.136 70.4934C263.779 70.2295 263.595 69.8998 263.595 69.5172C263.595 69.0687 263.793 68.6994 264.202 68.4224C264.823 68.0266 265.839 67.8288 267.252 67.8288C268.388 67.8288 269.246 68.0398 269.854 68.4619C270.461 68.8841 270.884 69.4908 271.095 70.2823L276.166 69.3457C275.651 67.5649 274.713 66.2326 273.366 65.3224C272.006 64.4123 270.078 63.9638 267.16 63.9638C264.242 63.9638 262.076 64.5574 260.69 65.7578C259.303 66.9581 258.603 68.4487 258.603 70.2032C258.603 72.1555 259.409 73.6856 261.02 74.7805C262.182 75.572 264.928 76.4426 269.273 77.4055C270.197 77.6298 270.804 77.8672 271.069 78.1178C271.319 78.3817 271.451 78.7246 271.451 79.1336C271.451 79.7404 271.214 80.2152 270.738 80.5714C270.039 81.0859 268.982 81.3365 267.596 81.3365C266.341 81.3365 265.351 81.0595 264.651 80.5186C263.951 79.9778 263.476 79.1731 263.251 78.131L257.867 78.9465L257.864 78.9357L257.851 78.9489ZM285.977 56.6954H280.589L280.576 56.6823V92.4698H285.964V82.2335C286.967 83.3151 287.931 84.0802 288.842 84.5287C289.753 84.9772 290.77 85.2015 291.892 85.2015C294.256 85.2015 296.263 84.2649 297.927 82.3786C299.591 80.4922 300.423 77.7617 300.423 74.4639C300.423 71.1661 299.604 68.5807 297.953 66.7339C296.316 64.8871 294.309 63.9638 291.945 63.9638C290.796 63.9638 289.78 64.1748 288.895 64.5837C288.01 65.0059 287.033 65.7446 285.977 66.7998V56.6954ZM286.927 78.817C286.267 77.8144 285.937 76.2579 285.937 74.1473H285.924C285.924 72.1027 286.346 70.5857 287.205 69.5832C288.063 68.5807 289.119 68.0794 290.427 68.0794C291.734 68.0794 292.817 68.5938 293.662 69.6227C294.507 70.6517 294.93 72.3269 294.93 74.6486C294.93 76.8251 294.507 78.4212 293.675 79.437C292.843 80.4527 291.826 80.9539 290.638 80.9539C289.093 80.9539 287.865 80.2416 286.927 78.817ZM309.138 64.4255V84.1198C309.138 86.7053 308.966 88.5388 308.636 89.6073C308.293 90.6758 307.646 91.5068 306.682 92.1004C305.718 92.694 304.49 92.9974 302.998 92.9974C302.456 92.9974 301.888 92.9447 301.268 92.8523C300.647 92.76 299.987 92.6149 299.261 92.417L300.198 87.8265C300.449 87.8793 300.7 87.9189 300.911 87.9452L300.953 87.9502L300.954 87.9502C301.162 87.9748 301.359 87.998 301.532 87.998C302.087 87.998 302.535 87.8793 302.879 87.6418C303.235 87.4044 303.46 87.1274 303.579 86.7844C303.697 86.4546 303.75 85.4521 303.75 83.8032V64.4255H309.138ZM303.75 61.6685V56.6954H309.138V61.6685H303.75ZM314.024 69.1083C313.139 70.7836 312.703 72.5116 312.703 74.2924C312.703 76.6273 313.139 78.6059 314.024 80.2284C314.895 81.8641 316.189 83.0909 317.879 83.9351C319.57 84.7794 321.352 85.2015 323.214 85.2015C326.225 85.2015 328.734 84.1858 330.714 82.1675C332.708 80.1493 333.699 77.577 333.699 74.5299C333.699 71.4827 332.722 68.95 330.754 66.9581C328.787 64.9663 326.264 63.9638 323.188 63.9638C321.194 63.9638 319.385 64.3991 317.774 65.2829C316.15 66.1667 314.908 67.433 314.024 69.1083ZM319.662 79.2127C318.698 78.1442 318.223 76.6009 318.223 74.5826C318.223 72.5644 318.698 71.021 319.662 69.9525C320.613 68.8841 321.788 68.3432 323.201 68.3432C324.614 68.3432 325.789 68.8841 326.74 69.9525C327.691 71.021 328.166 72.4984 328.166 74.543C328.166 76.5877 327.691 78.1442 326.74 79.2127C325.789 80.2812 324.601 80.822 323.201 80.822C321.801 80.822 320.626 80.2812 319.662 79.2127ZM323.122 56.2074L320.481 61.9323H323.888L329.156 56.2074H323.122ZM334.729 64.4254H337.713V62.8953C337.713 61.1804 337.898 59.9141 338.254 59.0699C338.611 58.2256 339.284 57.5397 340.261 57.012C341.239 56.4844 342.48 56.2206 343.972 56.2206C345.464 56.2206 347.009 56.4448 348.475 56.9065L347.749 60.6528C346.89 60.4549 346.072 60.3494 345.279 60.3494C344.487 60.3494 343.946 60.5341 343.602 60.8902C343.259 61.2596 343.1 61.9587 343.1 62.9876V64.4254H347.128V68.6598H343.1V84.753H337.713V68.6598H334.729V64.4254ZM348.462 69.7415L353.347 70.6253V70.6385C353.678 69.7019 354.113 69.0423 354.655 68.6598C355.196 68.2773 355.936 68.0926 356.9 68.0926C358.312 68.0926 359.276 68.3168 359.791 68.7521C360.306 69.2006 360.557 69.9393 360.557 70.9683V71.5091C359.593 71.918 357.85 72.3533 355.328 72.8282C353.466 73.1844 352.04 73.6065 351.05 74.0814C350.059 74.5694 349.28 75.2554 348.739 76.1524C348.198 77.0494 347.92 78.0783 347.92 79.2259C347.92 80.9539 348.528 82.3918 349.729 83.5262C350.931 84.6606 352.582 85.2279 354.681 85.2279C355.87 85.2279 356.992 85.0036 358.035 84.5551C359.078 84.1066 360.055 83.4471 360.98 82.5501C361.019 82.6556 361.085 82.8667 361.178 83.1832C361.376 83.8824 361.548 84.41 361.693 84.7662H367.014C366.539 83.79 366.222 82.8798 366.05 82.0356C365.879 81.1782 365.786 79.8591 365.786 78.0783L365.839 71.7993C365.839 69.4645 365.601 67.8551 365.126 66.9845C364.651 66.1139 363.819 65.3884 362.644 64.8212C361.468 64.254 359.686 63.9638 357.282 63.9638C354.628 63.9638 352.648 64.4254 351.301 65.3752C349.954 66.325 349.016 67.776 348.462 69.7415ZM360.531 74.9958C359.843 75.2193 358.752 75.4948 357.269 75.8094C355.777 76.126 354.8 76.4426 354.338 76.746C353.638 77.2472 353.281 77.8804 353.281 78.6455C353.281 79.4106 353.559 80.0437 354.126 80.5978C354.694 81.1518 355.407 81.4156 356.266 81.4156C357.23 81.4156 358.167 81.099 359.039 80.4527C359.686 79.9646 360.121 79.371 360.32 78.6719C360.465 78.2102 360.531 77.3396 360.531 76.0468V74.9958Z" fill="white"/>
<path d="M88.6974 94H5.34895C2.17981 94 -0.289482 91.2694 0.0274319 88.1299L8.42566 4.80157C8.70296 2.07101 11.0006 0 13.7472 0H97.0957C100.265 0 102.734 2.73056 102.417 5.87005L94.0189 89.1852C93.7416 91.9158 91.444 93.9868 88.6974 93.9868" fill="white"/>
<path d="M18.1444 58.0278L28.0216 57.5133C28.1536 60.6528 28.695 62.7766 29.6458 63.8714C31.1643 65.6654 33.9637 66.5492 38.044 66.5492C41.4376 66.5492 43.8937 65.9425 45.4122 64.7289C46.9308 63.5153 47.6835 62.0511 47.6835 60.323C47.6835 58.8324 47.0628 57.5661 45.8216 56.5372C44.9501 55.7853 42.56 54.5585 38.6382 52.8569C34.7296 51.1552 31.8642 49.7438 30.0683 48.6093C28.2725 47.4749 26.8463 45.9975 25.8164 44.1903C24.7864 42.3831 24.2714 40.2593 24.2714 37.8322C24.2714 33.5846 25.8032 30.0758 28.8799 27.2661C31.9566 24.4695 36.4066 23.0713 42.2431 23.0713C48.0796 23.0713 52.7541 24.4564 56.0025 27.2397C59.2508 30.0098 61.0335 33.7033 61.3636 38.3202L51.4072 38.7687C51.1563 36.3548 50.2848 34.5212 48.7927 33.2285C47.3005 31.9489 45.0953 31.3026 42.1771 31.3026C39.2588 31.3026 37.2517 31.8038 36.0237 32.8195C34.7956 33.8352 34.175 35.1016 34.175 36.6318C34.175 38.0828 34.7428 39.27 35.8652 40.2066C36.9876 41.1695 39.4833 42.4886 43.3391 44.1639C49.1492 46.6702 52.8465 48.6885 54.4311 50.2582C56.7948 52.5535 57.9832 55.4951 57.9832 59.0963C57.9832 63.5417 56.2269 67.3407 52.7013 70.5066C49.1756 73.6593 44.2634 75.2422 37.978 75.2422C33.6336 75.2422 29.8834 74.5167 26.7011 73.0525C23.5187 71.6015 21.2739 69.57 19.9667 66.9846C18.6594 64.3991 18.052 61.4179 18.1444 58.041V58.0278Z" fill="#20C420"/>
<path d="M63.1462 74.3716L73.7233 23.9419H84.089L73.5516 74.3716H63.1462Z" fill="#20C420"/>
</svg>
