<?xml version="1.0" encoding="UTF-8"?><svg id="Layer_1" xmlns="http://www.w3.org/2000/svg" xmlns:xlink="http://www.w3.org/1999/xlink" viewBox="0 0 1327.37 585.62"><defs><style>.cls-1{fill:none;}.cls-2{clip-path:url(#clippath);}.cls-3,.cls-4{fill:#fff;}.cls-5{fill:#fbf239;}.cls-6{fill:#71c339;}.cls-7{fill:#222221;}.cls-8{fill:#181714;opacity:.2;}.cls-8,.cls-9,.cls-4{fill-rule:evenodd;}.cls-9{fill:#ae292a;}</style><clipPath id="clippath"><rect class="cls-1" x="1522.67" y="-313.88" width="469.23" height="311.07"/></clipPath></defs><g><g><g><path class="cls-7" d="M579.66,367.53l15.99-1.55c.96,5.37,2.91,9.31,5.86,11.83,2.94,2.52,6.91,3.78,11.91,3.78,5.29,0,9.28-1.12,11.96-3.36,2.68-2.24,4.03-4.86,4.03-7.86,0-1.92-.56-3.56-1.69-4.91-1.13-1.35-3.1-2.53-5.91-3.53-1.93-.67-6.31-1.85-13.16-3.55-8.81-2.18-14.99-4.87-18.54-8.05-5-4.48-7.5-9.94-7.5-16.38,0-4.14,1.17-8.02,3.53-11.63,2.35-3.61,5.74-6.36,10.16-8.24,4.42-1.89,9.76-2.83,16.02-2.83,10.22,0,17.91,2.24,23.07,6.72,5.16,4.48,7.87,10.46,8.13,17.93l-16.43,.72c-.7-4.18-2.21-7.19-4.52-9.02-2.31-1.83-5.78-2.75-10.41-2.75s-8.51,.98-11.22,2.94c-1.74,1.26-2.61,2.94-2.61,5.05,0,1.92,.81,3.57,2.44,4.94,2.07,1.74,7.11,3.55,15.1,5.44,7.99,1.89,13.91,3.84,17.74,5.86,3.83,2.02,6.83,4.78,8.99,8.27,2.17,3.5,3.25,7.82,3.25,12.96,0,4.66-1.3,9.03-3.89,13.1-2.59,4.07-6.26,7.1-10.99,9.08-4.74,1.98-10.64,2.97-17.71,2.97-10.29,0-18.19-2.38-23.71-7.13-5.52-4.76-8.81-11.69-9.88-20.79Z"/><path class="cls-7" d="M684.32,335.05v12.44h-10.66v23.76c0,4.81,.1,7.62,.31,8.41,.2,.8,.67,1.45,1.39,1.97,.72,.52,1.6,.78,2.64,.78,1.44,0,3.53-.5,6.27-1.5l1.33,12.1c-3.63,1.55-7.74,2.33-12.33,2.33-2.81,0-5.35-.47-7.61-1.42-2.26-.94-3.91-2.17-4.97-3.66-1.06-1.5-1.79-3.53-2.19-6.08-.33-1.81-.5-5.48-.5-10.99v-25.71h-7.16v-12.44h7.16v-11.72l15.66-9.11v20.82h10.66Z"/><path class="cls-7" d="M727.02,375.24l15.55,2.61c-2,5.7-5.15,10.04-9.47,13.02-4.31,2.98-9.71,4.47-16.18,4.47-10.25,0-17.84-3.35-22.76-10.05-3.89-5.37-5.83-12.14-5.83-20.32,0-9.77,2.55-17.42,7.66-22.96,5.11-5.53,11.57-8.3,19.38-8.3,8.77,0,15.69,2.9,20.77,8.69,5.07,5.79,7.5,14.67,7.27,26.62h-39.09c.11,4.63,1.37,8.23,3.78,10.8,2.41,2.57,5.4,3.86,8.99,3.86,2.44,0,4.5-.67,6.16-2,1.67-1.33,2.92-3.48,3.78-6.44Zm.89-15.77c-.11-4.52-1.28-7.95-3.5-10.3-2.22-2.35-4.92-3.53-8.11-3.53-3.41,0-6.22,1.24-8.44,3.72-2.22,2.48-3.31,5.85-3.28,10.1h23.32Zm-19.93-31.65l7.66-16.6h17.49l-15.27,16.6h-9.88Z"/><path class="cls-7" d="M780.88,335.05v12.44h-10.66v23.76c0,4.81,.1,7.62,.31,8.41,.2,.8,.67,1.45,1.39,1.97,.72,.52,1.6,.78,2.64,.78,1.44,0,3.53-.5,6.27-1.5l1.33,12.1c-3.63,1.55-7.74,2.33-12.33,2.33-2.81,0-5.35-.47-7.61-1.42-2.26-.94-3.91-2.17-4.97-3.66-1.06-1.5-1.79-3.53-2.19-6.08-.33-1.81-.5-5.48-.5-10.99v-25.71h-7.16v-12.44h7.16v-11.72l15.66-9.11v20.82h10.66Z"/><path class="cls-7" d="M816.47,335.05v12.44h-10.66v23.76c0,4.81,.1,7.62,.31,8.41,.2,.8,.67,1.45,1.39,1.97,.72,.52,1.6,.78,2.64,.78,1.44,0,3.53-.5,6.27-1.5l1.33,12.1c-3.63,1.55-7.74,2.33-12.33,2.33-2.81,0-5.35-.47-7.61-1.42-2.26-.94-3.91-2.17-4.97-3.66-1.06-1.5-1.79-3.53-2.19-6.08-.33-1.81-.5-5.48-.5-10.99v-25.71h-7.16v-12.44h7.16v-11.72l15.66-9.11v20.82h10.66Z"/><path class="cls-7" d="M836.68,353.03l-14.16-2.55c1.59-5.7,4.33-9.92,8.22-12.66,3.89-2.74,9.66-4.11,17.32-4.11,6.96,0,12.14,.82,15.55,2.47,3.41,1.65,5.8,3.74,7.19,6.27,1.39,2.54,2.08,7.19,2.08,13.96l-.17,18.21c0,5.18,.25,9,.75,11.46,.5,2.46,1.43,5.1,2.8,7.91h-15.43c-.41-1.04-.91-2.57-1.5-4.61-.26-.92-.44-1.54-.56-1.83-2.67,2.59-5.52,4.54-8.55,5.83-3.04,1.3-6.27,1.94-9.72,1.94-6.07,0-10.85-1.65-14.35-4.94-3.5-3.29-5.25-7.46-5.25-12.49,0-3.33,.8-6.3,2.39-8.91,1.59-2.61,3.82-4.61,6.69-6,2.87-1.39,7-2.6,12.41-3.64,7.29-1.37,12.34-2.65,15.16-3.83v-1.55c0-3-.74-5.14-2.22-6.41-1.48-1.28-4.28-1.92-8.38-1.92-2.78,0-4.94,.55-6.5,1.64-1.55,1.09-2.81,3.01-3.78,5.75Zm20.88,12.66c-2,.67-5.16,1.46-9.49,2.39-4.33,.93-7.16,1.83-8.49,2.72-2.04,1.44-3.05,3.28-3.05,5.5s.81,4.07,2.44,5.66c1.63,1.59,3.7,2.39,6.22,2.39,2.81,0,5.5-.92,8.05-2.78,1.89-1.41,3.13-3.13,3.72-5.16,.41-1.33,.61-3.87,.61-7.61v-3.11Z"/><path class="cls-7" d="M900.93,394.01h-15.6v-58.96h14.49v8.38c2.48-3.96,4.71-6.57,6.69-7.83,1.98-1.26,4.23-1.89,6.75-1.89,3.55,0,6.98,.98,10.27,2.94l-4.83,13.6c-2.63-1.7-5.07-2.55-7.33-2.55s-4.03,.6-5.55,1.8c-1.52,1.2-2.71,3.38-3.58,6.52-.87,3.15-1.3,9.74-1.3,19.77v18.21Z"/><path class="cls-7" d="M921.14,335.05h8.66v-4.44c0-4.96,.53-8.66,1.58-11.1,1.05-2.44,3-4.43,5.83-5.97,2.83-1.54,6.41-2.3,10.74-2.3s8.79,.67,13.05,2l-2.11,10.88c-2.48-.59-4.87-.89-7.16-.89s-3.88,.53-4.86,1.58c-.98,1.06-1.47,3.08-1.47,6.08v4.16h11.66v12.27h-11.66v46.69h-15.6v-46.69h-8.66v-12.27Z"/><path class="cls-7" d="M997.7,375.24l15.55,2.61c-2,5.7-5.15,10.04-9.47,13.02-4.31,2.98-9.71,4.47-16.18,4.47-10.25,0-17.84-3.35-22.76-10.05-3.89-5.37-5.83-12.14-5.83-20.32,0-9.77,2.55-17.42,7.66-22.96,5.11-5.53,11.57-8.3,19.38-8.3,8.77,0,15.69,2.9,20.77,8.69,5.07,5.79,7.5,14.67,7.27,26.62h-39.09c.11,4.63,1.37,8.23,3.78,10.8,2.41,2.57,5.4,3.86,8.99,3.86,2.44,0,4.5-.67,6.16-2,1.67-1.33,2.92-3.48,3.78-6.44Zm.89-15.77c-.11-4.52-1.28-7.95-3.5-10.3-2.22-2.35-4.92-3.53-8.11-3.53-3.41,0-6.22,1.24-8.44,3.72-2.22,2.48-3.31,5.85-3.28,10.1h23.32Zm-19.93-31.65l7.66-16.6h17.49l-15.27,16.6h-9.88Z"/><path class="cls-7" d="M1024.52,394.01v-81.4h15.6v81.4h-15.6Z"/><path class="cls-7" d="M1065.5,353.03l-14.16-2.55c1.59-5.7,4.33-9.92,8.22-12.66,3.89-2.74,9.66-4.11,17.32-4.11,6.96,0,12.14,.82,15.55,2.47,3.41,1.65,5.8,3.74,7.19,6.27,1.39,2.54,2.08,7.19,2.08,13.96l-.17,18.21c0,5.18,.25,9,.75,11.46,.5,2.46,1.43,5.1,2.8,7.91h-15.43c-.41-1.04-.91-2.57-1.5-4.61-.26-.92-.44-1.54-.56-1.83-2.67,2.59-5.52,4.54-8.55,5.83-3.04,1.3-6.27,1.94-9.72,1.94-6.07,0-10.85-1.65-14.35-4.94-3.5-3.29-5.25-7.46-5.25-12.49,0-3.33,.8-6.3,2.39-8.91,1.59-2.61,3.82-4.61,6.69-6,2.87-1.39,7-2.6,12.41-3.64,7.29-1.37,12.34-2.65,15.16-3.83v-1.55c0-3-.74-5.14-2.22-6.41-1.48-1.28-4.28-1.92-8.38-1.92-2.78,0-4.94,.55-6.5,1.64-1.55,1.09-2.81,3.01-3.78,5.75Zm20.88,12.66c-2,.67-5.16,1.46-9.49,2.39-4.33,.93-7.16,1.83-8.49,2.72-2.04,1.44-3.05,3.28-3.05,5.5s.81,4.07,2.44,5.66c1.63,1.59,3.7,2.39,6.22,2.39,2.81,0,5.5-.92,8.05-2.78,1.89-1.41,3.13-3.13,3.72-5.16,.41-1.33,.61-3.87,.61-7.61v-3.11Z"/><path class="cls-7" d="M1113.36,397.9l17.82,2.17c.3,2.07,.98,3.5,2.05,4.28,1.48,1.11,3.81,1.67,7,1.67,4.07,0,7.12-.61,9.16-1.83,1.37-.81,2.41-2.13,3.11-3.94,.48-1.3,.72-3.68,.72-7.16v-8.61c-4.66,6.37-10.55,9.55-17.66,9.55-7.92,0-14.2-3.35-18.82-10.05-3.63-5.29-5.44-11.88-5.44-19.77,0-9.88,2.38-17.43,7.13-22.65,4.76-5.22,10.67-7.83,17.74-7.83s13.31,3.2,18.04,9.61v-8.27h14.6v52.91c0,6.96-.57,12.16-1.72,15.6-1.15,3.44-2.76,6.14-4.83,8.11-2.07,1.96-4.84,3.5-8.3,4.61-3.46,1.11-7.84,1.67-13.13,1.67-9.99,0-17.08-1.71-21.26-5.14-4.18-3.42-6.27-7.76-6.27-13.02,0-.52,.02-1.15,.06-1.89Zm13.94-34.59c0,6.26,1.21,10.84,3.64,13.74,2.42,2.91,5.41,4.36,8.97,4.36,3.81,0,7.03-1.49,9.66-4.47,2.63-2.98,3.94-7.39,3.94-13.24s-1.26-10.64-3.78-13.6c-2.52-2.96-5.7-4.44-9.55-4.44s-6.82,1.45-9.24,4.36c-2.42,2.91-3.64,7.34-3.64,13.3Z"/></g><g><path class="cls-7" d="M583.33,511.7v-81.4h16.43v81.4h-16.43Z"/><path class="cls-7" d="M666.55,511.7h-15.6v-30.09c0-6.37-.33-10.48-1-12.35-.67-1.87-1.75-3.32-3.25-4.36-1.5-1.04-3.3-1.55-5.41-1.55-2.7,0-5.13,.74-7.27,2.22-2.15,1.48-3.62,3.44-4.41,5.89-.8,2.44-1.19,6.96-1.19,13.55v26.71h-15.6v-58.96h14.49v8.66c5.14-6.66,11.62-9.99,19.43-9.99,3.44,0,6.59,.62,9.44,1.86,2.85,1.24,5.01,2.82,6.47,4.75,1.46,1.92,2.48,4.11,3.05,6.55,.57,2.44,.86,5.94,.86,10.49v36.64Z"/><path class="cls-7" d="M733.62,511.7h-15.6v-30.09c0-6.37-.33-10.48-1-12.35-.67-1.87-1.75-3.32-3.25-4.36-1.5-1.04-3.3-1.55-5.41-1.55-2.7,0-5.13,.74-7.27,2.22-2.15,1.48-3.62,3.44-4.41,5.89-.8,2.44-1.19,6.96-1.19,13.55v26.71h-15.6v-58.96h14.49v8.66c5.14-6.66,11.62-9.99,19.43-9.99,3.44,0,6.59,.62,9.44,1.86,2.85,1.24,5.01,2.82,6.47,4.75,1.46,1.92,2.48,4.11,3.05,6.55,.57,2.44,.86,5.94,.86,10.49v36.64Z"/><path class="cls-7" d="M746.39,511.7v-81.4h15.6v29.32c4.81-5.48,10.51-8.22,17.1-8.22,7.18,0,13.12,2.6,17.82,7.8,4.7,5.2,7.05,12.67,7.05,22.4s-2.4,17.82-7.19,23.26c-4.79,5.44-10.61,8.16-17.46,8.16-3.37,0-6.69-.84-9.97-2.53-3.28-1.68-6.1-4.17-8.47-7.47v8.66h-14.49Zm15.49-30.76c0,6.11,.96,10.62,2.89,13.55,2.7,4.15,6.29,6.22,10.77,6.22,3.44,0,6.38-1.47,8.8-4.41,2.42-2.94,3.64-7.58,3.64-13.91,0-6.74-1.22-11.59-3.66-14.57-2.44-2.98-5.57-4.47-9.38-4.47s-6.85,1.45-9.33,4.36c-2.48,2.91-3.72,7.32-3.72,13.24Z"/><path class="cls-7" d="M829.07,511.7h-15.6v-58.96h14.49v8.38c2.48-3.96,4.71-6.57,6.69-7.83,1.98-1.26,4.23-1.89,6.75-1.89,3.55,0,6.98,.98,10.27,2.94l-4.83,13.6c-2.63-1.7-5.07-2.55-7.33-2.55s-4.03,.6-5.55,1.8c-1.52,1.2-2.71,3.38-3.58,6.52-.87,3.15-1.3,9.74-1.3,19.77v18.21Z"/><path class="cls-7" d="M852.38,481.39c0-5.18,1.28-10.2,3.83-15.05,2.55-4.85,6.17-8.55,10.85-11.1,4.68-2.55,9.91-3.83,15.68-3.83,8.92,0,16.23,2.9,21.93,8.69,5.7,5.79,8.55,13.11,8.55,21.96s-2.88,16.31-8.63,22.18c-5.76,5.87-13,8.8-21.74,8.8-5.4,0-10.56-1.22-15.46-3.66-4.9-2.44-8.63-6.02-11.19-10.74-2.55-4.72-3.83-10.47-3.83-17.24Zm15.99,.83c0,5.85,1.39,10.33,4.16,13.44,2.78,3.11,6.2,4.66,10.27,4.66s7.49-1.55,10.24-4.66c2.76-3.11,4.14-7.62,4.14-13.55s-1.38-10.22-4.14-13.33c-2.76-3.11-6.17-4.66-10.24-4.66s-7.5,1.55-10.27,4.66c-2.78,3.11-4.16,7.59-4.16,13.44Z"/><path class="cls-7" d="M950.1,452.74v12.44h-10.66v23.76c0,4.81,.1,7.62,.31,8.41,.2,.8,.67,1.45,1.39,1.97,.72,.52,1.6,.78,2.64,.78,1.44,0,3.53-.5,6.27-1.5l1.33,12.1c-3.63,1.55-7.74,2.33-12.33,2.33-2.81,0-5.35-.47-7.61-1.42-2.26-.94-3.91-2.17-4.97-3.66-1.06-1.5-1.79-3.53-2.19-6.08-.33-1.81-.5-5.48-.5-10.99v-25.71h-7.16v-12.44h7.16v-11.72l15.66-9.11v20.82h10.66Z"/><path class="cls-7" d="M953.04,494.88l15.66-2.39c.67,3.04,2.02,5.34,4.05,6.91,2.04,1.57,4.89,2.36,8.55,2.36,4.03,0,7.07-.74,9.11-2.22,1.37-1.04,2.05-2.42,2.05-4.16,0-1.18-.37-2.17-1.11-2.94-.78-.74-2.52-1.42-5.22-2.05-12.59-2.78-20.56-5.31-23.93-7.61-4.66-3.18-7-7.61-7-13.27,0-5.11,2.02-9.4,6.05-12.88,4.03-3.48,10.29-5.22,18.77-5.22s14.07,1.31,17.99,3.94c3.92,2.63,6.63,6.51,8.11,11.66l-14.71,2.72c-.63-2.29-1.82-4.05-3.58-5.27-1.76-1.22-4.27-1.83-7.52-1.83-4.11,0-7.05,.57-8.83,1.72-1.19,.81-1.78,1.87-1.78,3.17,0,1.11,.52,2.05,1.55,2.83,1.41,1.04,6.26,2.5,14.57,4.39,8.31,1.89,14.11,4.2,17.41,6.94,3.26,2.78,4.89,6.64,4.89,11.6,0,5.4-2.26,10.05-6.77,13.94-4.52,3.89-11.2,5.83-20.04,5.83-8.03,0-14.39-1.63-19.07-4.89-4.68-3.26-7.74-7.68-9.19-13.27Z"/><path class="cls-7" d="M1018.95,430.3h15.6v29.32c3.07-3.07,5.89-5.21,8.47-6.41,2.57-1.2,5.52-1.8,8.86-1.8,6.85,0,12.66,2.68,17.43,8.05,4.78,5.37,7.16,12.85,7.16,22.43s-2.41,17.5-7.22,22.96c-4.81,5.46-10.64,8.19-17.49,8.19-3.26,0-6.21-.65-8.86-1.94-2.65-1.29-5.43-3.52-8.36-6.66v29.7h-15.6v-103.83Zm15.49,50.64c0,6.11,.96,10.62,2.89,13.55,2.7,4.15,6.29,6.22,10.77,6.22,3.44,0,6.38-1.47,8.8-4.41,2.42-2.94,3.64-7.58,3.64-13.91,0-6.74-1.22-11.59-3.66-14.57-2.44-2.98-5.57-4.47-9.38-4.47s-6.85,1.45-9.33,4.36c-2.48,2.91-3.72,7.32-3.72,13.24Z"/><path class="cls-7" d="M1101.73,452.74v57.13c0,7.51-.49,12.82-1.47,15.91-.98,3.09-2.87,5.51-5.66,7.25-2.8,1.74-6.36,2.61-10.69,2.61-1.55,0-3.23-.14-5.02-.42-1.79-.28-3.73-.69-5.8-1.25l2.72-13.32c.74,.15,1.43,.27,2.08,.36,.65,.09,1.25,.14,1.8,.14,1.59,0,2.9-.34,3.91-1.03,1.02-.69,1.69-1.51,2.03-2.47,.33-.96,.5-3.85,.5-8.66v-56.24h15.6Zm-15.6-8v-14.44h15.6v14.44h-15.6Z"/><path class="cls-7" d="M1112.06,481.39c0-5.18,1.28-10.2,3.83-15.05,2.55-4.85,6.17-8.55,10.85-11.1,4.68-2.55,9.91-3.83,15.68-3.83,8.92,0,16.23,2.9,21.93,8.69,5.7,5.79,8.55,13.11,8.55,21.96s-2.88,16.31-8.63,22.18c-5.76,5.87-13,8.8-21.74,8.8-5.4,0-10.56-1.22-15.46-3.66-4.9-2.44-8.63-6.02-11.19-10.74-2.55-4.72-3.83-10.47-3.83-17.24Zm15.99,.83c0,5.85,1.39,10.33,4.16,13.44,2.78,3.11,6.2,4.66,10.27,4.66s7.49-1.55,10.24-4.66c2.76-3.11,4.14-7.62,4.14-13.55s-1.38-10.22-4.14-13.33c-2.76-3.11-6.17-4.66-10.24-4.66s-7.5,1.55-10.27,4.66c-2.78,3.11-4.16,7.59-4.16,13.44Zm6.55-36.7l7.66-16.6h17.49l-15.27,16.6h-9.88Z"/><path class="cls-7" d="M1175.91,452.74h8.66v-4.44c0-4.96,.53-8.66,1.58-11.1,1.05-2.44,3-4.43,5.83-5.97,2.83-1.54,6.41-2.3,10.74-2.3s8.79,.67,13.05,2l-2.11,10.88c-2.48-.59-4.87-.89-7.16-.89s-3.88,.53-4.86,1.58c-.98,1.06-1.47,3.08-1.47,6.08v4.16h11.66v12.27h-11.66v46.69h-15.6v-46.69h-8.66v-12.27Z"/><path class="cls-7" d="M1229.87,470.72l-14.16-2.55c1.59-5.7,4.33-9.92,8.22-12.66,3.89-2.74,9.66-4.11,17.32-4.11,6.96,0,12.14,.82,15.55,2.47,3.41,1.65,5.8,3.74,7.19,6.27,1.39,2.54,2.08,7.19,2.08,13.96l-.17,18.21c0,5.18,.25,9,.75,11.46,.5,2.46,1.43,5.1,2.8,7.91h-15.43c-.41-1.04-.91-2.57-1.5-4.61-.26-.92-.44-1.54-.56-1.83-2.67,2.59-5.52,4.54-8.55,5.83-3.04,1.3-6.27,1.94-9.72,1.94-6.07,0-10.85-1.65-14.35-4.94-3.5-3.29-5.25-7.46-5.25-12.49,0-3.33,.8-6.3,2.39-8.91,1.59-2.61,3.82-4.61,6.69-6,2.87-1.39,7-2.6,12.41-3.64,7.29-1.37,12.34-2.65,15.16-3.83v-1.55c0-3-.74-5.14-2.22-6.41-1.48-1.28-4.28-1.92-8.38-1.92-2.78,0-4.94,.55-6.5,1.64-1.55,1.09-2.81,3.01-3.78,5.75Zm20.88,12.66c-2,.67-5.16,1.46-9.49,2.39-4.33,.93-7.16,1.83-8.49,2.72-2.04,1.44-3.05,3.28-3.05,5.5s.81,4.07,2.44,5.66c1.63,1.59,3.7,2.39,6.22,2.39,2.81,0,5.5-.92,8.05-2.78,1.89-1.41,3.13-3.13,3.72-5.16,.41-1.33,.61-3.87,.61-7.61v-3.11Z"/></g></g><g><rect class="cls-6" x="204.33" y="266.05" width="299.13" height="278.6" rx="19.62" ry="19.62"/><path class="cls-5" d="M365.24,447.7v-30.37h-86.01c-3.77,0-6.82,3.05-6.82,6.82v56.43c0,6.9,5.6,12.5,12.5,12.5l44.83,.14v12.96l-57.33,.14v30.07h85.27c4.17,0,7.56-3.38,7.56-7.56l.03-54.26c0-5.84-3.05-10.01-10.57-10.57l-35.72-2.26c-.08,0-.14-.06-.14-.14v-13.76c0-.08,.06-.14,.14-.14h46.27Z"/><rect class="cls-5" x="378.49" y="417.25" width="45" height="119.05"/><rect class="cls-5" x="380.26" y="367.64" width="41.2" height="38.41"/></g></g><g><path class="cls-9" d="M516.32,238.5s-3.28-53.6-27.35-94.07c-38.55-64.83-119.84-104.7-199.08-78.76-113.98,37.31-139.29,111.16-162.99,214.4-4.95,21.55-15.31,77.66-15.31,77.66l37.19,5.47s15.31-76.57,63.44-108.29c48.13-31.72,304.09-16.41,304.09-16.41Z"/><path class="cls-8" d="M230.62,188.95c-22.73-4.4,.2-59.84,.2-59.84,0,0-47.22,69.79-62.52,108.6-15.3,38.81-19.16,73.97-31.29,89.63-12.13,15.66-24.2,20.43-24.2,20.43v.02s-1.22,9.94-1.22,9.94l37.19,5.47s14.89-74.41,61.42-106.91c35.78-36.49,112.77-66.08,20.42-67.34Z"/><path class="cls-8" d="M185.42,223.38c8.1-18.06,28.28-61.09,28.28-61.09,0,0-4.53,11.69-9.8,26.02-5.28,14.33-8.19,44.95-8.19,44.95,0,0-1.86,18.6-5.53,41.44h0c-8.82,10.3-15.98,21.92-21.7,33.28,2.05-22.12,4.33-56.47,16.94-84.6Z"/><ellipse class="cls-3" cx="131.25" cy="375.78" rx="33.94" ry="33.36"/><path class="cls-8" d="M110.91,349.08c-8.25,6.09-13.59,15.78-13.59,26.7,0,18.42,15.2,33.36,33.94,33.36,15.71,0,28.93-10.5,32.79-24.76-5.67,4.18-12.71,6.66-20.34,6.66-18.74,0-33.94-14.94-33.94-33.36,0-2.98,.4-5.86,1.14-8.61Z"/><path class="cls-4" d="M529.44,231.94s-3.28,66.73-5.47,73.29c-2.19,6.56-7.66,18.6-27.35,7.66-63.33-35.18-154.76-55.65-224.24-24.06-36.1,16.41-63.44,36.1-72.19,33.91s-22.97-37.19-19.69-54.69c25.61-136.58,346.46-93.43,348.94-36.1Z"/><path class="cls-8" d="M525.72,291.43c-29,11.92-86.68-38.07-120.97-46.36-94.22-22.79-147.39,26.15-183.77,39.38-14.8,5.38-29.14-.86-40.95-10.15,.22,18.46,12.37,46.49,20.17,48.44,8.75,2.19,36.1-17.5,72.19-33.91,69.49-31.58,160.91-11.12,224.24,24.06,19.69,10.94,25.16-1.09,27.35-7.66,.53-1.61,1.14-6.83,1.74-13.8Z"/><path class="cls-8" d="M209.56,304.84c18.1-1.13,61.66-29.98,110.87-37.33,49.21-7.35,118.22,8,134.63,18.71,14.4,9.4,45.81,28.03,66.47,24.56-3.39,5.62-10.16,10.3-24.89,2.11-63.33-35.18-154.76-55.65-224.24-24.06-36.1,16.41-63.44,36.1-72.19,33.91-5.16-1.29-12.2-13.99-16.45-27.78,0,0,7.72,11.02,25.82,9.88Z"/></g><g class="cls-2"><image width="1500" height="693" transform="translate(1268.35 -313.86) scale(.58)" xlink:href="../Húseigandi, er Jólafrí framundan/stock-photo-top-aerial-view-of-young-happy-smiling-girl-making-by-arms-snow-angel-figure-and-lying-in-snow-1717723729.jpg"/></g></svg>