<svg width="250" height="64" viewBox="0 0 250 64" fill="none" xmlns="http://www.w3.org/2000/svg">
<path fill-rule="evenodd" clip-rule="evenodd" d="M126.119 26.2879L122.469 25.6772C122.262 26.3688 121.975 26.8717 121.579 27.1861C121.192 27.5004 120.707 27.6531 120.132 27.6531C119.286 27.6531 118.585 27.3477 118.019 26.746C117.452 26.1442 117.156 25.3 117.129 24.2133H126.308C126.362 21.4022 125.787 19.3185 124.6 17.9624C123.413 16.6062 121.786 15.9236 119.727 15.9236C117.893 15.9236 116.374 16.5703 115.178 17.8726C113.982 19.1748 113.38 20.9711 113.38 23.2613C113.38 25.1832 113.829 26.7729 114.746 28.0303C115.906 29.602 117.686 30.3923 120.096 30.3923C121.615 30.3923 122.883 30.0421 123.899 29.3415C124.905 28.641 125.652 27.6261 126.119 26.2879ZM121.858 19.561C122.379 20.1089 122.649 20.9172 122.676 21.977H117.201C117.192 20.98 117.452 20.1897 117.974 19.6059C118.495 19.0221 119.152 18.7347 119.952 18.7347C120.698 18.7347 121.336 19.0132 121.858 19.561ZM119.79 10.6517L117.992 14.5495H120.311L123.899 10.6517H119.79ZM87.8557 23.872L91.6137 23.5038C91.8385 24.7611 92.297 25.6862 92.9893 26.279C93.6815 26.8717 94.6166 27.1681 95.7853 27.1681C97.026 27.1681 97.961 26.9076 98.5993 26.3777C99.2287 25.8568 99.5433 25.2371 99.5433 24.5366C99.5433 24.0875 99.4085 23.7014 99.1477 23.387C98.887 23.0727 98.4195 22.7943 97.7632 22.5607C97.3137 22.4081 96.2798 22.1296 94.6705 21.7255C92.6027 21.2136 91.1462 20.5849 90.3191 19.8394C89.1413 18.7886 88.557 17.5043 88.557 15.9955C88.557 15.0255 88.8357 14.1094 89.3841 13.2652C89.9325 12.421 90.7327 11.7743 91.7666 11.3342C92.8095 10.8942 94.0591 10.6696 95.5246 10.6696C97.925 10.6696 99.7321 11.1995 100.946 12.2503C102.16 13.3011 102.798 14.7022 102.852 16.4625L98.9949 16.6331C98.8331 15.6542 98.4735 14.9447 97.934 14.5136C97.3946 14.0825 96.5765 13.8669 95.4886 13.8669C94.4008 13.8669 93.4927 14.1005 92.8544 14.5585C92.4498 14.8549 92.2431 15.25 92.2431 15.744C92.2431 16.1931 92.4319 16.5793 92.8185 16.9026C93.3039 17.3067 94.4907 17.7378 96.3697 18.1779C98.2487 18.618 99.6332 19.076 100.532 19.552C101.431 20.028 102.133 20.6747 102.645 21.492C103.158 22.3093 103.409 23.3241 103.409 24.5366C103.409 25.6323 103.104 26.6562 102.492 27.6082C101.881 28.5602 101.027 29.2697 99.9119 29.7367C98.7971 30.2037 97.4126 30.4372 95.7494 30.4372C93.3309 30.4372 91.4789 29.8804 90.1842 28.7667C88.8896 27.6531 88.1164 26.0275 87.8647 23.89L87.8557 23.872ZM112.436 16.247V19.1658H109.936V24.7432C109.936 25.8748 109.963 26.5304 110.008 26.719C110.053 26.9076 110.161 27.0603 110.332 27.1771C110.503 27.3028 110.71 27.3567 110.952 27.3567C111.294 27.3567 111.779 27.2399 112.427 27.0064L112.741 29.8445C111.887 30.2127 110.925 30.3923 109.846 30.3923C109.181 30.3923 108.588 30.2846 108.057 30.06C107.527 29.8355 107.14 29.5481 106.889 29.1978C106.637 28.8476 106.466 28.3716 106.376 27.7698C106.295 27.3477 106.259 26.4855 106.259 25.1922V19.1569H104.578V16.238H106.259V13.4897L109.936 11.3522V16.238H112.436V16.247ZM135.119 16.247V19.1658H132.619V24.7432C132.619 25.8748 132.646 26.5304 132.691 26.719C132.736 26.9076 132.844 27.0603 133.015 27.1771C133.186 27.3028 133.392 27.3567 133.635 27.3567C133.977 27.3567 134.462 27.2399 135.11 27.0064L135.424 29.8445C134.57 30.2127 133.608 30.3923 132.529 30.3923C131.864 30.3923 131.271 30.2846 130.74 30.06C130.21 29.8355 129.823 29.5481 129.572 29.1978C129.32 28.8476 129.149 28.3716 129.059 27.7698C128.978 27.3477 128.942 26.4855 128.942 25.1922V19.1569H127.261V16.238H128.942V13.4897L132.619 11.3522V16.238H135.119V16.247ZM143.48 19.1658V16.247V16.238H140.98V11.3522L137.303 13.4897V16.238H135.622V19.1569H137.303V25.1922C137.303 26.4855 137.339 27.3477 137.42 27.7698C137.51 28.3716 137.681 28.8476 137.933 29.1978C138.184 29.5481 138.571 29.8355 139.101 30.06C139.632 30.2846 140.225 30.3923 140.891 30.3923C141.969 30.3923 142.931 30.2127 143.785 29.8445L143.471 27.0064C142.823 27.2399 142.338 27.3567 141.996 27.3567C141.754 27.3567 141.547 27.3028 141.376 27.1771C141.205 27.0603 141.097 26.9076 141.052 26.719C141.007 26.5304 140.98 25.8748 140.98 24.7432V19.1658H143.48ZM148.227 20.4681L144.9 19.8664C145.278 18.5282 145.916 17.5402 146.833 16.8936C147.75 16.247 149.099 15.9326 150.906 15.9326C152.542 15.9326 153.756 16.1302 154.556 16.5164C155.356 16.9026 155.923 17.3965 156.246 17.9893C156.57 18.5821 156.732 19.6778 156.732 21.2674L156.696 25.5425C156.696 26.755 156.759 27.6531 156.876 28.2368C156.993 28.8116 157.208 29.4313 157.532 30.096H153.909C153.81 29.8535 153.693 29.4942 153.558 29.0182C153.495 28.8027 153.45 28.659 153.423 28.5871C152.794 29.1978 152.129 29.6469 151.418 29.9523C150.708 30.2576 149.944 30.4103 149.135 30.4103C147.705 30.4103 146.582 30.0241 145.763 29.2517C144.945 28.4793 144.532 27.5004 144.532 26.3239C144.532 25.5425 144.72 24.842 145.089 24.2312C145.458 23.6205 145.988 23.1535 146.662 22.8212C147.337 22.4979 148.308 22.2105 149.575 21.968C151.293 21.6447 152.479 21.3483 153.136 21.0699V20.7016C153.136 20.0011 152.965 19.4981 152.614 19.1928C152.264 18.8964 151.607 18.7437 150.645 18.7437C149.989 18.7437 149.485 18.8695 149.117 19.1299C148.748 19.3904 148.452 19.8394 148.227 20.4771V20.4681ZM150.897 23.9977C151.906 23.7836 152.65 23.596 153.118 23.4438V24.1594C153.118 25.0395 153.073 25.6323 152.974 25.9466C152.839 26.4226 152.542 26.8268 152.102 27.1591C151.508 27.5992 150.87 27.8147 150.214 27.8147C149.629 27.8147 149.144 27.6351 148.757 27.2579C148.371 26.8807 148.182 26.4496 148.182 25.9287C148.182 25.4078 148.425 24.9767 148.901 24.6354C149.216 24.4288 149.881 24.2133 150.897 23.9977ZM159.645 30.087H163.313V30.078V25.803C163.313 23.4499 163.412 21.9051 163.618 21.1687C163.825 20.4322 164.104 19.9203 164.464 19.6419C164.823 19.3634 165.237 19.2197 165.767 19.2197C166.298 19.2197 166.864 19.4263 167.484 19.8215L168.06 18.202V19.1299H170.092V30.087H173.76V19.1299H176.502V16.247H173.76V15.268C173.76 14.5675 173.868 14.0915 174.101 13.84C174.335 13.5975 174.704 13.4718 175.243 13.4718C175.783 13.4718 176.34 13.5436 176.924 13.6783L177.419 11.1277C176.421 10.8133 175.369 10.6606 174.353 10.6606C173.337 10.6606 172.492 10.8403 171.827 11.1995C171.161 11.5588 170.703 12.0258 170.46 12.6006C170.217 13.1754 170.092 14.0376 170.092 15.2051V16.247H168.06V16.3441C167.461 16.0771 166.845 15.9416 166.208 15.9416C165.614 15.9416 165.093 16.0853 164.625 16.3817C164.158 16.6781 163.636 17.2978 163.052 18.2228V16.2559H159.645V30.087ZM189.7 26.2879L186.05 25.6772C185.843 26.3688 185.555 26.8717 185.16 27.1861C184.773 27.5004 184.288 27.6531 183.712 27.6531C182.867 27.6531 182.166 27.3477 181.599 26.746C181.033 26.1442 180.736 25.3 180.709 24.2133H189.889C189.943 21.4022 189.367 19.3185 188.18 17.9624C186.994 16.6062 185.366 15.9236 183.308 15.9236C181.474 15.9236 179.954 16.5703 178.758 17.8726C177.563 19.1748 176.96 20.9711 176.96 23.2613C176.96 25.1832 177.41 26.7729 178.327 28.0303C179.487 29.602 181.267 30.3923 183.676 30.3923C185.196 30.3923 186.463 30.0421 187.479 29.3415C188.486 28.641 189.232 27.6261 189.7 26.2879ZM185.438 19.561C185.96 20.1089 186.23 20.9172 186.256 21.977H180.781C180.772 20.98 181.033 20.1897 181.554 19.6059C182.076 19.0221 182.732 18.7347 183.532 18.7347C184.279 18.7347 184.917 19.0132 185.438 19.561ZM183.371 10.6517L181.572 14.5495H183.892L187.479 10.6517H183.371ZM192.343 30.087V10.984H196.011V30.087H192.343ZM198.645 19.8664L201.972 20.4681V20.4771C202.197 19.8394 202.493 19.3904 202.862 19.1299C203.23 18.8695 203.734 18.7437 204.39 18.7437C205.352 18.7437 206.009 18.8964 206.359 19.1928C206.71 19.4981 206.881 20.0011 206.881 20.7016V21.0699C206.224 21.3483 205.038 21.6447 203.32 21.968C202.053 22.2105 201.082 22.4979 200.407 22.8212C199.733 23.1535 199.203 23.6205 198.834 24.2312C198.466 24.842 198.277 25.5425 198.277 26.3239C198.277 27.5004 198.69 28.4793 199.508 29.2517C200.327 30.0241 201.45 30.4103 202.88 30.4103C203.689 30.4103 204.453 30.2576 205.163 29.9523C205.874 29.6469 206.539 29.1978 207.168 28.5871C207.195 28.659 207.24 28.8027 207.303 29.0182C207.438 29.4942 207.555 29.8535 207.654 30.096H211.277C210.953 29.4313 210.738 28.8116 210.621 28.2368C210.504 27.6531 210.441 26.755 210.441 25.5425L210.477 21.2674C210.477 19.6778 210.315 18.5821 209.991 17.9893C209.668 17.3965 209.101 16.9026 208.301 16.5164C207.501 16.1302 206.287 15.9326 204.651 15.9326C202.844 15.9326 201.495 16.247 200.578 16.8936C199.661 17.5402 199.023 18.5282 198.645 19.8664ZM206.863 23.4438C206.395 23.596 205.651 23.7836 204.642 23.9977C203.626 24.2133 202.961 24.4288 202.646 24.6354C202.17 24.9767 201.927 25.4078 201.927 25.9287C201.927 26.4496 202.116 26.8807 202.502 27.2579C202.889 27.6351 203.374 27.8147 203.959 27.8147C204.615 27.8147 205.253 27.5992 205.847 27.1591C206.287 26.8268 206.584 26.4226 206.719 25.9466C206.818 25.6323 206.863 25.0395 206.863 24.1594V23.4438ZM213.21 30.9941L217.399 31.506C217.471 31.991 217.633 32.3233 217.885 32.5119C218.236 32.7724 218.784 32.9071 219.53 32.9071C220.483 32.9071 221.202 32.7634 221.679 32.476C222.003 32.2874 222.245 31.973 222.407 31.5509C222.524 31.2456 222.578 30.6887 222.578 29.8714V27.8507C221.481 29.3415 220.097 30.096 218.433 30.096C216.572 30.096 215.098 29.3056 214.01 27.7339C213.156 26.4945 212.733 24.9497 212.733 23.0996C212.733 20.7825 213.291 19.0132 214.406 17.7827C215.52 16.5613 216.914 15.9416 218.568 15.9416C220.223 15.9416 221.697 16.696 222.803 18.1959V16.2559H226.228V28.668C226.228 30.3025 226.093 31.524 225.824 32.3323C225.554 33.1406 225.176 33.7693 224.691 34.2363C224.205 34.6943 223.558 35.0536 222.74 35.314C221.931 35.5745 220.897 35.7092 219.656 35.7092C217.31 35.7092 215.646 35.3051 214.657 34.5057C213.668 33.7064 213.183 32.6825 213.183 31.4521C213.183 31.3264 213.183 31.1827 213.192 31.012L213.21 30.9941ZM216.482 22.8751C216.482 24.339 216.77 25.4168 217.337 26.0993C217.903 26.7819 218.604 27.1232 219.44 27.1232C220.339 27.1232 221.095 26.7729 221.706 26.0724C222.326 25.3719 222.632 24.339 222.632 22.9649C222.632 21.5908 222.335 20.4681 221.742 19.7766C221.149 19.085 220.402 18.7348 219.503 18.7348C218.604 18.7348 217.903 19.076 217.328 19.7586C216.761 20.4412 216.473 21.483 216.473 22.8751H216.482ZM88.7188 38.5922V57.6952H92.5757V38.5922H88.7188ZM108.264 57.6952H104.596V50.636C104.596 49.1451 104.515 48.1751 104.362 47.735C104.209 47.2949 103.949 46.9537 103.598 46.7112C103.247 46.4687 102.825 46.3429 102.33 46.3429C101.692 46.3429 101.126 46.5136 100.622 46.8638C100.119 47.2141 99.7681 47.6722 99.5883 48.247C99.3995 48.8218 99.3096 49.8815 99.3096 51.4263V57.6952H95.6415V43.8641H99.0489V45.8939C100.254 44.3312 101.782 43.5498 103.616 43.5498C104.425 43.5498 105.162 43.6935 105.837 43.9899C106.502 44.2773 107.014 44.6545 107.356 45.1035C107.698 45.5526 107.94 46.0645 108.075 46.6393C108.21 47.2141 108.273 48.0314 108.273 49.1002V57.6952H108.264ZM120.347 57.6952H124.015H124.024V49.1002C124.024 48.0314 123.961 47.2141 123.827 46.6393C123.692 46.0645 123.449 45.5526 123.107 45.1035C122.766 44.6545 122.253 44.2773 121.588 43.9899C120.914 43.6935 120.176 43.5498 119.367 43.5498C117.533 43.5498 116.005 44.3312 114.8 45.8939V43.8641H111.393V57.6952H115.061V51.4263C115.061 49.8815 115.151 48.8218 115.34 48.247C115.519 47.6722 115.87 47.2141 116.374 46.8638C116.877 46.5136 117.443 46.3429 118.082 46.3429C118.576 46.3429 118.999 46.4687 119.349 46.7112C119.7 46.9537 119.961 47.2949 120.114 47.735C120.266 48.1751 120.347 49.1451 120.347 50.636V57.6952ZM127.018 57.6952V38.5922H130.686V45.4718C131.819 44.1875 133.159 43.5408 134.705 43.5408C136.395 43.5408 137.789 44.1515 138.895 45.373C140 46.5944 140.549 48.3457 140.549 50.627C140.549 52.9082 139.983 54.8122 138.859 56.0875C137.735 57.3629 136.368 58.0005 134.759 58.0005C133.968 58.0005 133.186 57.8029 132.422 57.4078C131.648 57.0126 130.992 56.4288 130.435 55.6564V57.6862H127.027L127.018 57.6952ZM130.659 50.4743C130.659 51.9113 130.884 52.9711 131.334 53.6536C131.972 54.6236 132.808 55.1086 133.86 55.1086C134.669 55.1086 135.361 54.7673 135.928 54.0757C136.494 53.3842 136.782 52.2975 136.782 50.8156C136.782 49.2349 136.494 48.0943 135.919 47.3937C135.343 46.6932 134.606 46.3429 133.716 46.3429C132.826 46.3429 132.107 46.6842 131.522 47.3668C130.938 48.0494 130.65 49.0822 130.65 50.4743H130.659ZM142.77 57.6952H146.438V57.6862V53.4111C146.438 51.0581 146.537 49.5133 146.743 48.7768C146.95 48.0404 147.229 47.5285 147.588 47.25C147.948 46.9716 148.362 46.8279 148.892 46.8279C149.422 46.8279 149.989 47.0345 150.609 47.4297L151.742 44.2413C150.969 43.7833 150.169 43.5498 149.333 43.5498C148.739 43.5498 148.218 43.6935 147.75 43.9899C147.283 44.2862 146.761 44.9059 146.177 45.831V43.8641H142.77V57.6952ZM151.913 50.5821C151.913 49.3696 152.21 48.1931 152.812 47.0525C153.414 45.9118 154.259 45.0496 155.365 44.4479C156.462 43.8462 157.694 43.5498 159.051 43.5498C161.146 43.5498 162.863 44.2324 164.203 45.5885C165.542 46.9447 166.208 48.6691 166.208 50.7437C166.208 52.8184 165.533 54.5697 164.176 55.9438C162.827 57.318 161.119 58.0095 159.069 58.0095C157.802 58.0095 156.588 57.7221 155.437 57.1473C154.286 56.5725 153.405 55.7373 152.812 54.6236C152.21 53.5189 151.913 52.1717 151.913 50.5821ZM155.671 50.7797C155.671 52.1538 155.995 53.2046 156.651 53.932C157.307 54.6595 158.107 55.0278 159.06 55.0278C160.013 55.0278 160.822 54.6595 161.47 53.932C162.117 53.2046 162.441 52.1448 162.441 50.7527C162.441 49.3606 162.117 48.3547 161.47 47.6272C160.822 46.8998 160.022 46.5315 159.06 46.5315C158.098 46.5315 157.298 46.8998 156.651 47.6272C155.995 48.3547 155.671 49.4055 155.671 50.7797ZM174.866 46.783V43.8641V43.8551H172.366V38.9694L168.689 41.1069V43.8551H167.008V46.774H168.689V52.8094C168.689 54.1027 168.725 54.9649 168.806 55.387C168.896 55.9887 169.067 56.4647 169.318 56.815C169.57 57.1653 169.957 57.4527 170.487 57.6772C171.018 57.9017 171.611 58.0095 172.276 58.0095C173.355 58.0095 174.317 57.8299 175.171 57.4617L174.857 54.6236C174.209 54.8571 173.724 54.9739 173.382 54.9739C173.139 54.9739 172.933 54.92 172.762 54.7942C172.591 54.6775 172.483 54.5248 172.438 54.3362C172.393 54.1476 172.366 53.492 172.366 52.3603V46.783H174.866ZM175.558 53.7524L175.569 53.7508C175.911 55.0586 176.63 56.0979 177.725 56.8599C178.821 57.6233 180.314 58.0095 182.202 58.0095C184.279 58.0095 185.852 57.5605 186.913 56.6444C187.974 55.7373 188.504 54.6416 188.504 53.3752C188.504 52.2166 188.118 51.3095 187.353 50.6539C186.58 50.0163 185.214 49.4684 183.263 49.0283C181.312 48.5793 180.17 48.238 179.837 47.9955C179.595 47.8159 179.469 47.5913 179.469 47.3309C179.469 47.0255 179.604 46.774 179.882 46.5854C180.305 46.316 180.997 46.1813 181.959 46.1813C182.732 46.1813 183.317 46.325 183.73 46.6124C184.144 46.8998 184.431 47.3129 184.575 47.8518L188.028 47.2141C187.677 46.0017 187.039 45.0946 186.122 44.4749C185.196 43.8551 183.883 43.5498 181.896 43.5498C179.909 43.5498 178.435 43.9539 177.491 44.7712C176.547 45.5885 176.07 46.6034 176.07 47.7979C176.07 49.1271 176.619 50.1689 177.716 50.9144C178.507 51.4532 180.377 52.046 183.335 52.7016C183.964 52.8543 184.377 53.016 184.557 53.1866C184.728 53.3662 184.818 53.5997 184.818 53.8782C184.818 54.2913 184.656 54.6146 184.333 54.8571C183.856 55.2074 183.137 55.378 182.193 55.378C181.339 55.378 180.664 55.1894 180.188 54.8212C179.711 54.453 179.388 53.9051 179.235 53.1956L175.569 53.7508L175.567 53.7434L175.558 53.7524ZM194.708 38.6011H191.039L191.03 38.5922V62.9581H194.699V55.9887C195.382 56.7252 196.038 57.2461 196.658 57.5515C197.279 57.8568 197.971 58.0095 198.735 58.0095C200.345 58.0095 201.711 57.3718 202.844 56.0875C203.977 54.8032 204.543 52.9441 204.543 50.6988C204.543 48.4535 203.986 46.6932 202.862 45.4358C201.747 44.1785 200.381 43.5498 198.771 43.5498C197.989 43.5498 197.297 43.6935 196.694 43.9719C196.092 44.2593 195.427 44.7622 194.708 45.4807V38.6011ZM195.355 53.6626C194.905 52.98 194.681 51.9203 194.681 50.4833H194.672C194.672 49.0912 194.959 48.0583 195.544 47.3758C196.128 46.6932 196.847 46.3519 197.737 46.3519C198.627 46.3519 199.365 46.7022 199.94 47.4027C200.515 48.1033 200.803 49.2439 200.803 50.8246C200.803 52.3064 200.515 53.3932 199.949 54.0847C199.383 54.7763 198.69 55.1176 197.881 55.1176C196.829 55.1176 195.993 54.6326 195.355 53.6626ZM210.477 43.8641V57.2731C210.477 59.0334 210.36 60.2818 210.135 61.0092C209.901 61.7367 209.461 62.3025 208.805 62.7067C208.148 63.1108 207.312 63.3174 206.296 63.3174C205.928 63.3174 205.541 63.2815 205.119 63.2186C204.696 63.1557 204.246 63.0569 203.752 62.9222L204.39 59.7968C204.561 59.8327 204.732 59.8596 204.876 59.8776L204.904 59.881C205.047 59.8977 205.18 59.9135 205.298 59.9135C205.676 59.9135 205.982 59.8327 206.215 59.671C206.458 59.5094 206.611 59.3208 206.692 59.0873C206.773 58.8627 206.809 58.1802 206.809 57.0575V43.8641H210.477ZM206.809 41.9871V38.6012H210.477V41.9871H206.809ZM213.803 47.0525C213.201 48.1931 212.904 49.3696 212.904 50.5821C212.904 52.1717 213.201 53.5189 213.803 54.6236C214.397 55.7373 215.278 56.5725 216.429 57.1473C217.579 57.7221 218.793 58.0095 220.061 58.0095C222.111 58.0095 223.819 57.318 225.167 55.9438C226.525 54.5697 227.199 52.8184 227.199 50.7437C227.199 48.6691 226.534 46.9447 225.194 45.5885C223.855 44.2324 222.137 43.5498 220.043 43.5498C218.685 43.5498 217.453 43.8462 216.357 44.4479C215.251 45.0497 214.406 45.9118 213.803 47.0525ZM217.642 53.9321C216.986 53.2046 216.662 52.1538 216.662 50.7797C216.662 49.4055 216.986 48.3547 217.642 47.6273C218.29 46.8998 219.09 46.5315 220.052 46.5315C221.014 46.5315 221.814 46.8998 222.461 47.6273C223.108 48.3547 223.432 49.3606 223.432 50.7527C223.432 52.1448 223.108 53.2046 222.461 53.9321C221.814 54.6595 221.005 55.0278 220.052 55.0278C219.099 55.0278 218.299 54.6595 217.642 53.9321ZM219.998 38.2689L218.2 42.1667H220.519L224.106 38.2689H219.998ZM227.9 43.8641H229.932V42.8223C229.932 41.6548 230.058 40.7926 230.301 40.2178C230.544 39.643 231.002 39.1759 231.667 38.8167C232.333 38.4575 233.178 38.2778 234.194 38.2778C235.21 38.2778 236.262 38.4305 237.259 38.7449L236.765 41.2955C236.181 41.1608 235.623 41.0889 235.084 41.0889C234.544 41.0889 234.176 41.2147 233.942 41.4572C233.708 41.7086 233.6 42.1846 233.6 42.8852V43.8641H236.342V46.7471H233.6V57.7041H229.932V46.7471H227.9V43.8641ZM237.251 47.4836L240.577 48.0853V48.0943C240.802 47.4566 241.098 47.0075 241.467 46.7471C241.836 46.4866 242.339 46.3609 242.995 46.3609C243.957 46.3609 244.614 46.5136 244.964 46.81C245.315 47.1153 245.486 47.6183 245.486 48.3188V48.687C244.829 48.9655 243.643 49.2618 241.926 49.5852C240.658 49.8276 239.687 50.115 239.013 50.4384C238.338 50.7707 237.808 51.2377 237.439 51.8484C237.071 52.4591 236.882 53.1597 236.882 53.941C236.882 55.1176 237.295 56.0965 238.114 56.8689C238.932 57.6413 240.056 58.0275 241.485 58.0275C242.294 58.0275 243.058 57.8748 243.769 57.5694C244.479 57.2641 245.144 56.815 245.773 56.2043C245.8 56.2761 245.845 56.4198 245.908 56.6354C246.043 57.1114 246.16 57.4706 246.259 57.7131H249.882C249.558 57.0485 249.343 56.4288 249.226 55.854C249.109 55.2702 249.046 54.3721 249.046 53.1597L249.082 48.8846C249.082 47.2949 248.92 46.1992 248.596 45.6065C248.273 45.0137 247.706 44.5198 246.906 44.1336C246.106 43.7474 244.892 43.5498 243.256 43.5498C241.449 43.5498 240.1 43.8641 239.183 44.5108C238.266 45.1574 237.628 46.1454 237.251 47.4836ZM245.468 51.061C245 51.2132 244.257 51.4007 243.247 51.6149C242.231 51.8305 241.566 52.046 241.251 52.2526C240.775 52.5939 240.532 53.0249 240.532 53.5459C240.532 54.0668 240.721 54.4979 241.107 54.8751C241.494 55.2523 241.979 55.4319 242.564 55.4319C243.22 55.4319 243.858 55.2164 244.452 54.7763C244.892 54.444 245.189 54.0398 245.324 53.5638C245.423 53.2495 245.468 52.6567 245.468 51.7766V51.061Z" fill="black"/>
<path d="M60.3897 64H3.64184C1.48413 64 -0.197094 62.1409 0.0186771 60.0034L5.73662 3.26916C5.92542 1.41005 7.48976 0 9.35978 0H66.1077C68.2654 0 69.9466 1.85911 69.7308 3.99663L64.0129 60.7219C63.8241 62.581 62.2598 63.991 60.3897 63.991" fill="#20C420"/>
<path d="M12.3536 39.5083L19.0785 39.158C19.1684 41.2956 19.537 42.7415 20.1844 43.487C21.2183 44.7084 23.1242 45.3101 25.9023 45.3101C28.2129 45.3101 29.8851 44.897 30.919 44.0707C31.9529 43.2445 32.4653 42.2476 32.4653 41.071C32.4653 40.0561 32.0428 39.194 31.1977 38.4934C30.6043 37.9815 28.977 37.1462 26.3069 35.9877C23.6457 34.8291 21.6948 33.8681 20.472 33.0957C19.2493 32.3233 18.2784 31.3174 17.5771 30.087C16.8759 28.8566 16.5252 27.4106 16.5252 25.7581C16.5252 22.8661 17.5681 20.4771 19.6629 18.5642C21.7577 16.6601 24.7875 15.7081 28.7613 15.7081C32.7351 15.7081 35.9177 16.6512 38.1293 18.5462C40.341 20.4322 41.5547 22.947 41.7795 26.0904L35.0007 26.3958C34.8298 24.7522 34.2365 23.5038 33.2205 22.6237C32.2046 21.7525 30.7032 21.3124 28.7163 21.3124C26.7294 21.3124 25.3629 21.6537 24.5268 22.3452C23.6906 23.0368 23.2681 23.899 23.2681 24.9408C23.2681 25.9287 23.6547 26.737 24.4189 27.3747C25.1831 28.0303 26.8823 28.9284 29.5075 30.0691C33.4633 31.7755 35.9806 33.1496 37.0595 34.2184C38.6688 35.7811 39.4779 37.7839 39.4779 40.2358C39.4779 43.2624 38.2822 45.849 35.8817 48.0045C33.4813 50.151 30.1368 51.2288 25.8573 51.2288C22.8995 51.2288 20.3462 50.7348 18.1795 49.7379C16.0128 48.7499 14.4844 47.3668 13.5943 45.6065C12.7043 43.8462 12.2907 41.8165 12.3536 39.5173V39.5083Z" fill="white"/>
<path d="M42.9932 50.636L50.1945 16.3009H57.2521L50.0777 50.636H42.9932Z" fill="white"/>
</svg>
