<?xml version="1.0" encoding="UTF-8"?><svg id="a" xmlns="http://www.w3.org/2000/svg" viewBox="0 0 824 286"><defs><style>.b{fill:#fff200;}.c{fill:#20c420;}</style></defs><g><g><path d="M309.46,116.98l10.66-1.04c.64,3.58,1.94,6.2,3.9,7.88,1.96,1.68,4.61,2.52,7.94,2.52,3.53,0,6.19-.75,7.97-2.24,1.79-1.49,2.68-3.24,2.68-5.24,0-1.28-.38-2.37-1.13-3.27-.75-.9-2.07-1.68-3.94-2.35-1.28-.44-4.21-1.23-8.77-2.37-5.87-1.46-9.99-3.24-12.36-5.37-3.33-2.98-5-6.62-5-10.92,0-2.76,.78-5.35,2.35-7.75,1.57-2.41,3.82-4.24,6.77-5.49,2.95-1.26,6.51-1.89,10.68-1.89,6.81,0,11.93,1.49,15.37,4.48,3.44,2.99,5.25,6.97,5.42,11.95l-10.95,.48c-.47-2.79-1.47-4.79-3.02-6.01-1.54-1.22-3.85-1.83-6.94-1.83s-5.67,.65-7.47,1.96c-1.16,.84-1.74,1.96-1.74,3.37,0,1.28,.54,2.38,1.63,3.29,1.38,1.16,4.74,2.37,10.06,3.63,5.33,1.26,9.27,2.56,11.82,3.9,2.55,1.35,4.55,3.18,5.99,5.51,1.44,2.33,2.16,5.21,2.16,8.64,0,3.11-.86,6.02-2.59,8.73-1.73,2.71-4.17,4.73-7.33,6.05-3.16,1.32-7.09,1.98-11.8,1.98-6.86,0-12.12-1.58-15.8-4.75-3.68-3.17-5.87-7.79-6.59-13.86Z"/><path d="M379.22,95.34v8.29h-7.1v15.84c0,3.21,.07,5.08,.2,5.61,.14,.53,.44,.97,.93,1.31,.48,.35,1.07,.52,1.76,.52,.96,0,2.36-.33,4.18-1l.89,8.07c-2.42,1.04-5.16,1.55-8.21,1.55-1.88,0-3.56-.31-5.07-.94-1.5-.63-2.61-1.44-3.31-2.44-.7-1-1.19-2.35-1.46-4.05-.22-1.21-.33-3.65-.33-7.33v-17.13h-4.77v-8.29h4.77v-7.81l10.43-6.07v13.88h7.1Z"/><path d="M407.67,122.13l10.36,1.74c-1.33,3.8-3.44,6.69-6.31,8.68-2.87,1.99-6.47,2.98-10.79,2.98-6.83,0-11.89-2.23-15.17-6.7-2.59-3.58-3.89-8.09-3.89-13.54,0-6.51,1.7-11.61,5.11-15.3,3.4-3.69,7.71-5.53,12.91-5.53,5.85,0,10.46,1.93,13.84,5.79,3.38,3.86,5,9.77,4.85,17.74h-26.05c.07,3.08,.91,5.48,2.52,7.2,1.6,1.71,3.6,2.57,5.99,2.57,1.63,0,3-.44,4.11-1.33,1.11-.89,1.95-2.32,2.52-4.29Zm.59-10.51c-.07-3.01-.85-5.3-2.33-6.86-1.48-1.57-3.28-2.35-5.4-2.35-2.27,0-4.14,.83-5.62,2.48-1.48,1.65-2.21,3.9-2.18,6.73h15.54Zm-13.28-21.09l5.11-11.06h11.66l-10.18,11.06h-6.59Z"/><path d="M443.57,95.34v8.29h-7.1v15.84c0,3.21,.07,5.08,.2,5.61,.14,.53,.44,.97,.93,1.31,.48,.35,1.07,.52,1.76,.52,.96,0,2.36-.33,4.18-1l.89,8.07c-2.42,1.04-5.16,1.55-8.21,1.55-1.88,0-3.56-.31-5.07-.94-1.5-.63-2.61-1.44-3.31-2.44-.7-1-1.19-2.35-1.46-4.05-.22-1.21-.33-3.65-.33-7.33v-17.13h-4.77v-8.29h4.77v-7.81l10.43-6.07v13.88h7.1Z"/><path d="M467.29,95.34v8.29h-7.1v15.84c0,3.21,.07,5.08,.2,5.61,.14,.53,.44,.97,.93,1.31,.48,.35,1.07,.52,1.76,.52,.96,0,2.36-.33,4.18-1l.89,8.07c-2.42,1.04-5.16,1.55-8.21,1.55-1.88,0-3.56-.31-5.07-.94-1.5-.63-2.61-1.44-3.31-2.44-.7-1-1.19-2.35-1.46-4.05-.22-1.21-.33-3.65-.33-7.33v-17.13h-4.77v-8.29h4.77v-7.81l10.43-6.07v13.88h7.1Z"/><path d="M480.76,107.33l-9.44-1.7c1.06-3.8,2.89-6.61,5.48-8.44,2.59-1.83,6.44-2.74,11.54-2.74,4.64,0,8.09,.55,10.36,1.65,2.27,1.1,3.87,2.49,4.79,4.18,.93,1.69,1.39,4.79,1.39,9.31l-.11,12.14c0,3.45,.17,6,.5,7.64,.33,1.64,.96,3.4,1.87,5.27h-10.29c-.27-.69-.6-1.71-1-3.07-.17-.62-.3-1.02-.37-1.22-1.78,1.73-3.68,3.02-5.7,3.89-2.02,.86-4.18,1.3-6.48,1.3-4.05,0-7.23-1.1-9.56-3.29-2.33-2.2-3.5-4.97-3.5-8.33,0-2.22,.53-4.2,1.59-5.94,1.06-1.74,2.55-3.07,4.46-4,1.91-.92,4.67-1.73,8.27-2.42,4.86-.91,8.23-1.76,10.1-2.55v-1.04c0-2-.49-3.42-1.48-4.27-.99-.85-2.85-1.28-5.59-1.28-1.85,0-3.29,.36-4.33,1.09-1.04,.73-1.88,2-2.52,3.83Zm13.91,8.44c-1.33,.44-3.44,.97-6.33,1.59-2.89,.62-4.77,1.22-5.66,1.81-1.36,.96-2.04,2.18-2.04,3.66s.54,2.71,1.63,3.77c1.09,1.06,2.47,1.59,4.14,1.59,1.87,0,3.66-.62,5.37-1.85,1.26-.94,2.08-2.08,2.48-3.44,.27-.89,.41-2.58,.41-5.07v-2.07Z"/><path d="M523.57,134.63h-10.4v-39.3h9.66v5.59c1.65-2.64,3.14-4.38,4.46-5.22,1.32-.84,2.82-1.26,4.5-1.26,2.37,0,4.65,.65,6.85,1.96l-3.22,9.07c-1.75-1.13-3.38-1.7-4.88-1.7s-2.69,.4-3.7,1.2c-1.01,.8-1.81,2.25-2.39,4.35-.58,2.1-.87,6.49-.87,13.17v12.14Z"/><path d="M537.04,95.34h5.77v-2.96c0-3.31,.35-5.77,1.05-7.4,.7-1.63,2-2.95,3.89-3.98,1.89-1.02,4.27-1.54,7.16-1.54s5.86,.44,8.7,1.33l-1.41,7.25c-1.65-.39-3.24-.59-4.77-.59s-2.58,.35-3.24,1.05c-.65,.7-.98,2.05-.98,4.05v2.78h7.77v8.18h-7.77v31.12h-10.4v-31.12h-5.77v-8.18Z"/><path d="M588.07,122.13l10.36,1.74c-1.33,3.8-3.44,6.69-6.31,8.68-2.87,1.99-6.47,2.98-10.79,2.98-6.83,0-11.89-2.23-15.17-6.7-2.59-3.58-3.89-8.09-3.89-13.54,0-6.51,1.7-11.61,5.11-15.3,3.4-3.69,7.71-5.53,12.91-5.53,5.85,0,10.46,1.93,13.84,5.79,3.38,3.86,5,9.77,4.85,17.74h-26.05c.07,3.08,.91,5.48,2.52,7.2,1.6,1.71,3.6,2.57,5.99,2.57,1.63,0,3-.44,4.11-1.33,1.11-.89,1.95-2.32,2.52-4.29Zm.59-10.51c-.07-3.01-.85-5.3-2.33-6.86-1.48-1.57-3.28-2.35-5.4-2.35-2.27,0-4.14,.83-5.62,2.48-1.48,1.65-2.21,3.9-2.18,6.73h15.54Zm-13.28-21.09l5.11-11.06h11.66l-10.18,11.06h-6.59Z"/><path d="M605.94,134.63v-54.25h10.4v54.25h-10.4Z"/><path d="M633.25,107.33l-9.44-1.7c1.06-3.8,2.89-6.61,5.48-8.44,2.59-1.83,6.44-2.74,11.54-2.74,4.64,0,8.09,.55,10.36,1.65,2.27,1.1,3.87,2.49,4.79,4.18,.93,1.69,1.39,4.79,1.39,9.31l-.11,12.14c0,3.45,.17,6,.5,7.64,.33,1.64,.96,3.4,1.87,5.27h-10.29c-.27-.69-.6-1.71-1-3.07-.17-.62-.3-1.02-.37-1.22-1.78,1.73-3.68,3.02-5.7,3.89-2.02,.86-4.18,1.3-6.48,1.3-4.05,0-7.23-1.1-9.56-3.29-2.33-2.2-3.5-4.97-3.5-8.33,0-2.22,.53-4.2,1.59-5.94,1.06-1.74,2.55-3.07,4.46-4,1.91-.92,4.67-1.73,8.27-2.42,4.86-.91,8.23-1.76,10.1-2.55v-1.04c0-2-.49-3.42-1.48-4.27-.99-.85-2.85-1.28-5.59-1.28-1.85,0-3.29,.36-4.33,1.09-1.04,.73-1.88,2-2.52,3.83Zm13.91,8.44c-1.33,.44-3.44,.97-6.33,1.59-2.89,.62-4.77,1.22-5.66,1.81-1.36,.96-2.04,2.18-2.04,3.66s.54,2.71,1.63,3.77c1.09,1.06,2.47,1.59,4.14,1.59,1.87,0,3.66-.62,5.37-1.85,1.26-.94,2.08-2.08,2.48-3.44,.27-.89,.41-2.58,.41-5.07v-2.07Z"/><path d="M665.15,137.22l11.88,1.44c.2,1.38,.65,2.33,1.37,2.85,.99,.74,2.54,1.11,4.66,1.11,2.71,0,4.75-.41,6.11-1.22,.91-.54,1.6-1.42,2.07-2.63,.32-.86,.48-2.45,.48-4.77v-5.74c-3.11,4.24-7.03,6.36-11.77,6.36-5.28,0-9.46-2.23-12.54-6.7-2.42-3.53-3.63-7.92-3.63-13.17,0-6.59,1.58-11.62,4.75-15.1,3.17-3.48,7.11-5.22,11.82-5.22s8.87,2.13,12.03,6.4v-5.51h9.73v35.26c0,4.64-.38,8.1-1.15,10.4-.76,2.29-1.84,4.09-3.22,5.4-1.38,1.31-3.23,2.33-5.53,3.07-2.31,.74-5.22,1.11-8.75,1.11-6.66,0-11.38-1.14-14.17-3.42-2.79-2.28-4.18-5.17-4.18-8.68,0-.35,.01-.76,.04-1.26Zm9.29-23.05c0,4.17,.81,7.22,2.42,9.16,1.62,1.94,3.61,2.9,5.98,2.9,2.54,0,4.69-.99,6.44-2.98,1.75-1.99,2.63-4.93,2.63-8.82s-.84-7.09-2.52-9.07c-1.68-1.97-3.8-2.96-6.36-2.96s-4.55,.97-6.16,2.9c-1.62,1.94-2.42,4.89-2.42,8.86Z"/></g><g><path d="M311.91,213.07v-54.25h10.95v54.25h-10.95Z"/><path d="M367.37,213.07h-10.4v-20.06c0-4.24-.22-6.99-.67-8.23s-1.17-2.21-2.16-2.9c-1-.69-2.2-1.04-3.61-1.04-1.8,0-3.42,.49-4.85,1.48-1.43,.99-2.41,2.29-2.94,3.92-.53,1.63-.8,4.64-.8,9.03v17.8h-10.4v-39.3h9.66v5.77c3.43-4.44,7.75-6.66,12.95-6.66,2.29,0,4.39,.41,6.29,1.24,1.9,.83,3.34,1.88,4.31,3.16,.97,1.28,1.65,2.74,2.04,4.37,.38,1.63,.57,3.96,.57,6.99v24.42Z"/><path d="M412.07,213.07h-10.4v-20.06c0-4.24-.22-6.99-.67-8.23s-1.17-2.21-2.16-2.9c-1-.69-2.2-1.04-3.61-1.04-1.8,0-3.42,.49-4.85,1.48-1.43,.99-2.41,2.29-2.94,3.92-.53,1.63-.8,4.64-.8,9.03v17.8h-10.4v-39.3h9.66v5.77c3.43-4.44,7.75-6.66,12.95-6.66,2.29,0,4.39,.41,6.29,1.24,1.9,.83,3.34,1.88,4.31,3.16,.97,1.28,1.65,2.74,2.04,4.37,.38,1.63,.57,3.96,.57,6.99v24.42Z"/><path d="M420.58,213.07v-54.25h10.4v19.54c3.21-3.65,7.01-5.48,11.4-5.48,4.79,0,8.74,1.73,11.88,5.2,3.13,3.47,4.7,8.44,4.7,14.93s-1.6,11.88-4.79,15.5c-3.2,3.63-7.07,5.44-11.64,5.44-2.25,0-4.46-.56-6.64-1.68-2.18-1.12-4.06-2.78-5.64-4.98v5.77h-9.66Zm10.32-20.5c0,4.07,.64,7.08,1.92,9.03,1.8,2.76,4.19,4.14,7.18,4.14,2.29,0,4.25-.98,5.86-2.94,1.62-1.96,2.42-5.05,2.42-9.27,0-4.49-.81-7.73-2.44-9.71-1.63-1.99-3.71-2.98-6.25-2.98s-4.56,.97-6.22,2.9c-1.65,1.94-2.48,4.88-2.48,8.82Z"/><path d="M475.68,213.07h-10.4v-39.3h9.66v5.59c1.65-2.64,3.14-4.38,4.46-5.22,1.32-.84,2.82-1.26,4.5-1.26,2.37,0,4.65,.65,6.85,1.96l-3.22,9.07c-1.75-1.13-3.38-1.7-4.88-1.7s-2.69,.4-3.7,1.2c-1.01,.8-1.81,2.25-2.39,4.35-.58,2.1-.87,6.49-.87,13.17v12.14Z"/><path d="M491.22,192.87c0-3.45,.85-6.8,2.55-10.03,1.7-3.23,4.11-5.7,7.23-7.4,3.12-1.7,6.6-2.55,10.45-2.55,5.94,0,10.82,1.93,14.62,5.79,3.8,3.86,5.7,8.74,5.7,14.63s-1.92,10.87-5.75,14.78c-3.84,3.91-8.67,5.87-14.49,5.87-3.6,0-7.04-.81-10.31-2.44-3.27-1.63-5.75-4.01-7.46-7.16-1.7-3.15-2.55-6.98-2.55-11.49Zm10.66,.55c0,3.9,.93,6.88,2.78,8.95,1.85,2.07,4.13,3.11,6.85,3.11s4.99-1.04,6.83-3.11c1.84-2.07,2.76-5.08,2.76-9.03s-.92-6.81-2.76-8.88c-1.84-2.07-4.11-3.11-6.83-3.11s-5,1.04-6.85,3.11c-1.85,2.07-2.78,5.06-2.78,8.95Z"/><path d="M556.34,173.77v8.29h-7.1v15.84c0,3.21,.07,5.08,.2,5.61,.14,.53,.44,.97,.93,1.31,.48,.35,1.07,.52,1.76,.52,.96,0,2.36-.33,4.18-1l.89,8.07c-2.42,1.04-5.16,1.55-8.21,1.55-1.88,0-3.56-.31-5.07-.94-1.5-.63-2.61-1.44-3.31-2.44-.7-1-1.19-2.35-1.46-4.05-.22-1.21-.33-3.65-.33-7.33v-17.13h-4.77v-8.29h4.77v-7.81l10.43-6.07v13.88h7.1Z"/><path d="M558.3,201.86l10.43-1.59c.44,2.02,1.34,3.56,2.7,4.61,1.36,1.05,3.26,1.57,5.7,1.57,2.69,0,4.71-.49,6.07-1.48,.91-.69,1.37-1.62,1.37-2.78,0-.79-.25-1.44-.74-1.96-.52-.49-1.68-.95-3.48-1.37-8.39-1.85-13.7-3.54-15.95-5.07-3.11-2.12-4.66-5.07-4.66-8.84,0-3.4,1.34-6.27,4.03-8.58,2.69-2.32,6.86-3.48,12.51-3.48s9.37,.88,11.99,2.63c2.61,1.75,4.42,4.34,5.4,7.77l-9.81,1.81c-.42-1.53-1.22-2.7-2.39-3.52-1.17-.81-2.84-1.22-5.01-1.22-2.74,0-4.7,.38-5.88,1.15-.79,.54-1.18,1.25-1.18,2.11,0,.74,.35,1.37,1.04,1.89,.94,.69,4.18,1.67,9.71,2.92,5.54,1.26,9.4,2.8,11.6,4.63,2.17,1.85,3.26,4.43,3.26,7.73,0,3.6-1.5,6.7-4.51,9.29-3.01,2.59-7.46,3.89-13.36,3.89-5.35,0-9.59-1.09-12.71-3.26-3.12-2.17-5.16-5.12-6.12-8.84Z"/><path d="M602.22,158.82h10.4v19.54c2.05-2.05,3.93-3.47,5.64-4.27,1.71-.8,3.68-1.2,5.9-1.2,4.56,0,8.44,1.79,11.62,5.37,3.18,3.58,4.77,8.56,4.77,14.95s-1.6,11.66-4.81,15.3c-3.21,3.64-7.09,5.46-11.66,5.46-2.17,0-4.14-.43-5.9-1.3-1.76-.86-3.62-2.34-5.57-4.44v19.8h-10.4v-69.19Zm10.32,33.75c0,4.07,.64,7.08,1.92,9.03,1.8,2.76,4.19,4.14,7.18,4.14,2.29,0,4.25-.98,5.86-2.94,1.62-1.96,2.42-5.05,2.42-9.27,0-4.49-.81-7.73-2.44-9.71-1.63-1.99-3.71-2.98-6.25-2.98s-4.56,.97-6.22,2.9c-1.65,1.94-2.48,4.88-2.48,8.82Z"/><path d="M657.39,173.77v38.08c0,5.01-.33,8.54-.98,10.6-.65,2.06-1.91,3.67-3.77,4.83-1.86,1.16-4.24,1.74-7.12,1.74-1.04,0-2.15-.09-3.35-.28-1.2-.19-2.48-.46-3.87-.83l1.81-8.88c.49,.1,.96,.18,1.39,.24,.43,.06,.83,.09,1.2,.09,1.06,0,1.93-.23,2.61-.68,.68-.46,1.13-1.01,1.35-1.65,.22-.64,.33-2.57,.33-5.77v-37.48h10.4Zm-10.4-5.33v-9.62h10.4v9.62h-10.4Z"/><path d="M664.28,192.87c0-3.45,.85-6.8,2.55-10.03,1.7-3.23,4.11-5.7,7.23-7.4,3.12-1.7,6.6-2.55,10.45-2.55,5.94,0,10.82,1.93,14.62,5.79,3.8,3.86,5.7,8.74,5.7,14.63s-1.92,10.87-5.75,14.78c-3.84,3.91-8.67,5.87-14.49,5.87-3.6,0-7.04-.81-10.31-2.44-3.27-1.63-5.75-4.01-7.46-7.16-1.7-3.15-2.55-6.98-2.55-11.49Zm10.66,.55c0,3.9,.93,6.88,2.78,8.95,1.85,2.07,4.13,3.11,6.85,3.11s4.99-1.04,6.83-3.11c1.84-2.07,2.76-5.08,2.76-9.03s-.92-6.81-2.76-8.88c-1.84-2.07-4.11-3.11-6.83-3.11s-5,1.04-6.85,3.11c-1.85,2.07-2.78,5.06-2.78,8.95Zm4.37-24.46l5.11-11.06h11.66l-10.18,11.06h-6.59Z"/><path d="M706.83,173.77h5.77v-2.96c0-3.31,.35-5.77,1.05-7.4,.7-1.63,2-2.95,3.89-3.98,1.89-1.02,4.27-1.54,7.16-1.54s5.86,.44,8.7,1.33l-1.41,7.25c-1.65-.39-3.24-.59-4.77-.59s-2.58,.35-3.24,1.05c-.65,.7-.98,2.05-.98,4.05v2.78h7.77v8.18h-7.77v31.12h-10.4v-31.12h-5.77v-8.18Z"/><path d="M742.8,185.76l-9.44-1.7c1.06-3.8,2.89-6.61,5.48-8.44,2.59-1.83,6.44-2.74,11.54-2.74,4.64,0,8.09,.55,10.36,1.65,2.27,1.1,3.87,2.49,4.79,4.18,.93,1.69,1.39,4.79,1.39,9.31l-.11,12.14c0,3.45,.17,6,.5,7.64,.33,1.64,.96,3.4,1.87,5.27h-10.29c-.27-.69-.6-1.71-1-3.07-.17-.62-.3-1.02-.37-1.22-1.78,1.73-3.68,3.02-5.7,3.89-2.02,.86-4.18,1.3-6.48,1.3-4.05,0-7.23-1.1-9.56-3.29-2.33-2.2-3.5-4.97-3.5-8.33,0-2.22,.53-4.2,1.59-5.94,1.06-1.74,2.55-3.07,4.46-4,1.91-.92,4.67-1.73,8.27-2.42,4.86-.91,8.23-1.76,10.1-2.55v-1.04c0-2-.49-3.42-1.48-4.27-.99-.85-2.85-1.28-5.59-1.28-1.85,0-3.29,.36-4.33,1.09-1.04,.73-1.88,2-2.52,3.83Zm13.91,8.44c-1.33,.44-3.44,.97-6.33,1.59-2.89,.62-4.77,1.22-5.66,1.81-1.36,.96-2.04,2.18-2.04,3.66s.54,2.71,1.63,3.77c1.09,1.06,2.47,1.59,4.14,1.59,1.87,0,3.66-.62,5.37-1.85,1.26-.94,2.08-2.08,2.48-3.44,.27-.89,.41-2.58,.41-5.07v-2.07Z"/></g></g><g><rect class="c" x="59.32" y="49.36" width="199.35" height="185.67" rx="13.07" ry="13.07"/><path class="b" d="M166.57,170.42v-20.24h-57.32c-2.51,0-4.54,2.03-4.54,4.54v37.61c0,4.6,3.73,8.33,8.33,8.33l29.88,.1v8.64l-38.21,.1v20.04h56.83c2.78,0,5.04-2.26,5.04-5.04l.02-36.16c0-3.89-2.03-6.67-7.05-7.05l-23.81-1.51c-.05,0-.1-.04-.1-.1v-9.17c0-.05,.04-.1,.1-.1h30.84Z"/><rect class="b" x="175.39" y="150.12" width="29.99" height="79.34"/><rect class="b" x="176.57" y="117.06" width="27.46" height="25.6"/></g></svg>